<?xml version="1.0" standalone="no"?>
<!DOCTYPE svg PUBLIC "-//W3C//DTD SVG 20010904//EN"
 "http://www.w3.org/TR/2001/REC-SVG-20010904/DTD/svg10.dtd">
<svg version="1.0" xmlns="http://www.w3.org/2000/svg"
 width="286.000000pt" height="200.000000pt" viewBox="0 0 286.000000 200.000000"
 preserveAspectRatio="xMidYMid meet">
<metadata>
Created by potrace 1.16, written by Peter Selinger 2001-2019
</metadata>
<g transform="translate(0.000000,200.000000) scale(0.100000,-0.100000)"
fill="#000000" stroke="none">
<path d="M0 1000 l0 -1000 1430 0 1430 0 0 1000 0 1000 -1430 0 -1430 0 0
-1000z m1568 545 c61 -33 112 -85 143 -147 l22 -43 -23 20 -23 20 10 -20 c13
-25 15 -143 3 -165 -5 -9 -5 -22 0 -29 5 -9 11 -1 20 25 18 58 29 62 19 9 -12
-62 -59 -143 -112 -193 -48 -43 -179 -142 -214 -161 -19 -10 -23 -20 -23 -64
0 -29 5 -69 11 -89 12 -47 31 -53 156 -53 83 0 94 2 117 24 14 14 26 32 26 42
0 10 5 21 12 25 8 5 9 -2 5 -26 -4 -18 -7 -45 -7 -61 0 -16 -9 -38 -20 -49
-20 -20 -29 -20 -273 -15 -139 3 -251 8 -250 12 2 3 15 8 29 9 15 2 32 8 38
14 6 6 13 56 14 111 l4 99 70 48 c340 230 403 311 353 452 -23 65 -77 125
-143 157 -51 25 -67 28 -158 28 -99 0 -102 -1 -189 -44 -116 -57 -197 -137
-253 -249 -51 -103 -66 -173 -59 -282 20 -318 301 -552 617 -512 47 5 114 22
148 35 34 14 60 22 57 17 -10 -17 -138 -61 -205 -70 -178 -25 -390 52 -506
184 -135 155 -185 390 -120 574 66 190 215 336 396 388 27 8 86 12 150 11 95
-2 110 -5 158 -32z m-213 -195 c72 -2 114 -5 94 -7 -53 -6 -59 -28 -59 -207
l0 -154 -63 -41 c-35 -22 -66 -41 -70 -41 -4 0 -7 90 -7 199 0 221 -1 225 -65
237 -43 8 -38 20 7 19 18 -1 92 -3 163 -5z m385 -33 c0 -5 -4 -5 -10 -2 -5 3
-10 14 -10 23 0 15 2 15 10 2 5 -8 10 -19 10 -23z"/>
</g>
</svg>
