<?xml version="1.0" encoding="UTF-8"?>
<svg version="1.1" xmlns="http://www.w3.org/2000/svg" width="250" height="250">
<path d="M0 0 C82.5 0 165 0 250 0 C250 82.5 250 165 250 250 C167.5 250 85 250 0 250 C0 167.5 0 85 0 0 Z " fill="#070201" transform="translate(0,0)"/>
<path d="M0 0 C5.95898836 4.48109602 13.89586573 10.48901403 15.4453125 18.22265625 C15.59905769 19.70803317 15.70968992 21.19900042 15.76171875 22.69140625 C15.92147472 25.12892773 15.92147472 25.12892773 16.99609375 27.8046875 C20.37404005 38.55628312 17.91418272 49.79516648 14 60 C14.66 60 15.32 60 16 60 C14.69540054 64.96042621 12.52718008 68.25556473 9.0625 71.9375 C8.57740967 72.45820068 8.09231934 72.97890137 7.5925293 73.51538086 C-3.11565012 84.62060708 -15.38868612 88.97806196 -30.625 89.375 C-43.71784111 89.43734686 -54.75118139 83.84682688 -64.18359375 74.9375 C-75.54609893 62.90913912 -78.74908895 50.20719364 -78.30859375 34.12109375 C-77.65936597 22.3083809 -70.62907335 10.5938356 -62.06640625 2.625 C-43.00337214 -12.36596822 -20.22852897 -12.64136136 0 0 Z " fill="#090706" transform="translate(155,85)"/>
<path d="M0 0 C3.55260924 2.80118126 6.82782908 5.77666503 10 9 C9.67 9.66 9.34 10.32 9 11 C8.65710938 10.57589844 8.31421875 10.15179688 7.9609375 9.71484375 C-0.06632588 0.71877272 -10.7065805 -3.35351964 -22.5078125 -4.2734375 C-35.77564099 -4.64596832 -46.26825977 -1.13954509 -56 8 C-64.27799295 16.01279409 -69.24055549 26.93362361 -69.4375 38.4375 C-69.41598139 50.7647954 -65.73464812 62.02829463 -57 71 C-56.08927734 71.95132813 -56.08927734 71.95132813 -55.16015625 72.921875 C-45.35948945 82.30165427 -34.09037515 84.4215768 -21.015625 84.21484375 C-9.06454231 83.76570175 0.49743022 78.08360673 8.56640625 69.57421875 C9.03949219 69.05472656 9.51257813 68.53523438 10 68 C10 71.74876206 9.21302166 72.21936368 6.625 74.8125 C-4.59573506 85.59709342 -17.38060258 89.31193144 -32.72705078 89.38500977 C-44.91432717 89.12686388 -55.46542751 83.17219011 -64.18359375 74.9375 C-75.54609893 62.90913912 -78.74908895 50.20719364 -78.30859375 34.12109375 C-77.65936597 22.3083809 -70.62907335 10.5938356 -62.06640625 2.625 C-43.1068059 -12.28462901 -20.11482081 -12.77149793 0 0 Z " fill="#F3F3F2" transform="translate(155,85)"/>
<path d="M0 0 C6.94449668 5.58641897 11.78174903 11.68618499 15 20 C15.36480469 20.928125 15.72960937 21.85625 16.10546875 22.8125 C17.14055326 26.50083607 17.34386077 29.94989287 17.3125 33.75 C17.30512817 34.80779663 17.30512817 34.80779663 17.29760742 35.88696289 C17.03898394 47.47196852 12.78021396 57.20659051 4.9375 65.6875 C-4.87402154 75.05676597 -16.91629439 78.53117421 -30.21875 78.30859375 C-40.80034486 77.44501318 -51.77263387 71.8217219 -59 64 C-58.505 63.01 -58.505 63.01 -58 62 C-57.45472656 62.45890625 -56.90945312 62.9178125 -56.34765625 63.390625 C-55.59355469 64.00421875 -54.83945313 64.6178125 -54.0625 65.25 C-53.33160156 65.85328125 -52.60070312 66.4565625 -51.84765625 67.078125 C-44.84308646 71.80548897 -38.62048643 73.71209641 -30.1875 73.5625 C-29.31383789 73.55226807 -28.44017578 73.54203613 -27.54003906 73.53149414 C-17.43165616 73.2012221 -9.11503835 70.07426233 -1.74609375 63.01171875 C6.34303257 53.69203183 9.65013202 43.7134848 9.34765625 31.49609375 C8.28176365 20.77728615 3.01760044 11.05529507 -5.25 4.1875 C-15.56920321 -3.14680972 -25.59514538 -4.36998511 -38 -3 C-44.86675232 -1.52234444 -49.98296633 1.11856183 -55 6 C-55.66 5.67 -56.32 5.34 -57 5 C-40.36696073 -10.74830314 -19.36228502 -12.0609343 0 0 Z " fill="#F5F3F3" transform="translate(156,90)"/>
<path d="M0 0 C3.3 0 6.6 0 10 0 C10 12.21 10 24.42 10 37 C15.28 37 20.56 37 26 37 C26 39.97 26 42.94 26 46 C17.42 46 8.84 46 0 46 C0 30.82 0 15.64 0 0 Z " fill="#E9E8E8" transform="translate(96,102)"/>
<path d="M0 0 C2.97 0 5.94 0 9 0 C9 11.88 9 23.76 9 36 C14.28 36 19.56 36 25 36 C25 38.64 25 41.28 25 44 C16.75 44 8.5 44 0 44 C0 29.48 0 14.96 0 0 Z " fill="#FDFBFB" transform="translate(127,103)"/>
<path d="M0 0 C3.55260924 2.80118126 6.82782908 5.77666503 10 9 C9.67 9.66 9.34 10.32 9 11 C8.65710938 10.57589844 8.31421875 10.15179688 7.9609375 9.71484375 C-0.06632588 0.71877272 -10.7065805 -3.35351964 -22.5078125 -4.2734375 C-35.06161489 -4.62592007 -44.72212349 -1.73834733 -54.1953125 6.64453125 C-56 8 -56 8 -59 8 C-59.66 7.67 -60.32 7.34 -61 7 C-61.825 7.495 -62.65 7.99 -63.5 8.5 C-64.325 8.995 -65.15 9.49 -66 10 C-66.66 9.67 -67.32 9.34 -68 9 C-49.80069948 -11.60803148 -22.88222943 -14.52860796 0 0 Z " fill="#EEEDEC" transform="translate(155,85)"/>
<path d="M0 0 C0.99 0.33 1.98 0.66 3 1 C1.72039191 6.14871893 -0.53447913 9.07105756 -4.4375 12.5 C-4.96956055 12.9755835 -5.50162109 13.45116699 -6.04980469 13.94116211 C-18.18725997 24.4635238 -30.37504893 26.98437192 -46 26 C-57.21250991 24.20660124 -66.81970482 17.61966311 -74 9 C-75.53188144 6.71083253 -76.76485143 4.47029715 -78 2 C-77.01 1.67 -76.02 1.34 -75 1 C-71.19297466 5.44152957 -71.19297466 5.44152957 -70.15234375 8.453125 C-67.17624489 15.03080791 -58.37566851 18.57121078 -52.0078125 21.2734375 C-41.30539181 25.14629791 -29.16532324 23.72431569 -19 19 C-10.85595057 14.57748803 -3.61227477 8.7119568 0 0 Z " fill="#222121" transform="translate(168,144)"/>
<path d="M0 0 C2.54068871 2.17226493 4.7649289 4.520468 7 7 C7.94875 7.886875 8.8975 8.77375 9.875 9.6875 C11.91374314 11.90613224 12.89654038 12.99967115 13 16 C12.34 16.66 11.68 17.32 11 18 C10.72027344 17.50371094 10.44054687 17.00742188 10.15234375 16.49609375 C3.94373722 5.97540037 -3.73697148 0.57762583 -15 -4 C-27.84446987 -6.87835918 -39.34850078 -5.08282683 -50.625 1.5 C-56.3473128 5.49423642 -60.10732693 11.31283225 -64 17 C-65 14 -65 14 -64.28125 11.55859375 C-59.77141533 2.55267391 -49.86691688 -3.21579017 -40.8125 -6.875 C-26.96113828 -11.02549668 -11.74912959 -7.90494433 0 0 Z " fill="#262525" transform="translate(157,88)"/>
<path d="M0 0 C0.44988281 0.37511719 0.89976563 0.75023437 1.36328125 1.13671875 C13.20002513 10.55392781 24.13895137 12.54796178 39 11 C41.72445266 10.45800013 44.32634756 9.76786558 47 9 C45.08385329 12.64067874 43.88470412 14.56845074 40 16 C25.49392865 17.48337947 14.69366783 13.51346425 3 5 C1.1875 3.41015625 1.1875 3.41015625 0 2 C0 1.34 0 0.68 0 0 Z " fill="#F0EEEE" transform="translate(97,152)"/>
<path d="M0 0 C0 3.74876206 -0.78697834 4.21936368 -3.375 6.8125 C-14.23010587 17.24567596 -26.59565152 21.23902702 -41.4375 21.0625 C-42.16904297 21.05798828 -42.90058594 21.05347656 -43.65429688 21.04882812 C-45.43623419 21.03718148 -47.21812863 21.01925191 -49 21 C-47.32279798 18.74429782 -45.97267943 17.19673606 -43.14355469 16.62451172 C-40.88320528 16.48759972 -38.63944968 16.44586019 -36.375 16.4375 C-22.08522928 15.99873523 -11.41394819 12.09930988 -1.43359375 1.57421875 C-0.96050781 1.05472656 -0.48742187 0.53523437 0 0 Z " fill="#E9E8E9" transform="translate(165,153)"/>
<path d="M0 0 C-1.70233335 2.12966088 -2.52132962 2.94175698 -5.27734375 3.27709961 C-6.59412109 3.21534546 -6.59412109 3.21534546 -7.9375 3.15234375 C-8.91017822 3.12164795 -9.88285645 3.09095215 -10.88500977 3.05932617 C-11.91295654 3.01912354 -12.94090332 2.9789209 -14 2.9375 C-24.20246556 2.73964642 -32.45630577 3.15376901 -40.6875 9.75 C-41.450625 10.4925 -42.21375 11.235 -43 12 C-43.66 11.67 -44.32 11.34 -45 11 C-32.2798892 -1.04350916 -17.17985051 -5.49755216 0 0 Z " fill="#EBEBEB" transform="translate(144,84)"/>
<path d="M0 0 C1.485 0.495 1.485 0.495 3 1 C1.72034869 6.14889286 -0.53464281 9.07073692 -4.4375 12.5 C-4.96811035 12.9748584 -5.4987207 13.4497168 -6.04541016 13.93896484 C-12.39088237 19.44489965 -19.42282699 24.32223973 -28 25 C-28.99 24.34 -29.98 23.68 -31 23 C-30.23816406 22.78085938 -29.47632813 22.56171875 -28.69140625 22.3359375 C-17.34720667 18.85195111 -7.05984106 13.20294381 -1.0625 2.5625 C-0.5365625 1.2940625 -0.5365625 1.2940625 0 0 Z " fill="#242221" transform="translate(168,144)"/>
<path d="M0 0 C0 0.33 0 0.66 0 1 C-0.81791016 1.22042969 -0.81791016 1.22042969 -1.65234375 1.4453125 C-13.7327771 5.03846703 -20.03429016 11.82314733 -27 22 C-28 19 -28 19 -27.28125 16.55859375 C-22.77889604 7.56761251 -10.2850736 -2.50177466 0 0 Z " fill="#242424" transform="translate(120,83)"/>
<path d="M0 0 C4.41108022 2.76399812 8.11553775 6.40309305 11.75097656 10.09716797 C11.42097656 10.75716797 11.09097656 11.41716797 10.75097656 12.09716797 C10.40808594 11.67306641 10.06519531 11.24896484 9.71191406 10.81201172 C0.30457026 0.26929884 -11.70226269 -2.97315237 -25.24902344 -3.90283203 C-25.24902344 -4.23283203 -25.24902344 -4.56283203 -25.24902344 -4.90283203 C-15.4661135 -8.22902141 -8.61028513 -4.84588511 0 0 Z " fill="#CCCBCA" transform="translate(153.2490234375,83.90283203125)"/>
<path d="M0 0 C0 3.74876206 -0.78697834 4.21936368 -3.375 6.8125 C-9.61217054 12.80680726 -16.51054952 17.15446729 -25 19 C-25 18.34 -25 17.68 -25 17 C-25.66 16.67 -26.32 16.34 -27 16 C-26.38253906 15.84144531 -25.76507813 15.68289062 -25.12890625 15.51953125 C-14.51533724 12.59554953 -7.41660577 8.14412023 0 0 Z " fill="#C7C5C4" transform="translate(165,153)"/>
<path d="M0 0 C0 0.33 0 0.66 0 1 C-0.88300781 1.02578125 -1.76601562 1.0515625 -2.67578125 1.078125 C-13.62789591 1.595733 -22.94418984 3.16191444 -31 11 C-31.66 10.67 -32.32 10.34 -33 10 C-21.82696927 -0.57872059 -14.96781688 -1.56481722 0 0 Z " fill="#BFBFBF" transform="translate(132,85)"/>
<path d="M0 0 C0.44988281 0.37511719 0.89976563 0.75023437 1.36328125 1.13671875 C12.08356989 9.66568586 21.64153608 11.81562973 35 12 C35 12.33 35 12.66 35 13 C24.06148362 14.41059414 16.21867323 15.01116632 7 8 C5.89978516 7.17435547 5.89978516 7.17435547 4.77734375 6.33203125 C2.8125 4.75 2.8125 4.75 0 2 C0 1.34 0 0.68 0 0 Z " fill="#BAB9B8" transform="translate(97,152)"/>
<path d="M0 0 C0.33 0.66 0.66 1.32 1 2 C0.319375 2.721875 -0.36125 3.44375 -1.0625 4.1875 C-3.31737069 6.8205652 -3.31737069 6.8205652 -2.75 9.8125 C-2.5025 10.534375 -2.255 11.25625 -2 12 C-3.98 12.99 -3.98 12.99 -6 14 C-6.99 13.01 -7.98 12.02 -9 11 C-7.6618467 6.9855401 -5.23686108 5.64233558 -2 3 C-1.34 2.01 -0.68 1.02 0 0 Z " fill="#EDECEA" transform="translate(158,148)"/>
<path d="M0 0 C4.62 0 9.24 0 14 0 C13.67 0.66 13.34 1.32 13 2 C8.31604754 3.14242743 3.78644729 3.08252495 -1 3 C-0.67 2.01 -0.34 1.02 0 0 Z " fill="#FBFBF9" transform="translate(121,77)"/>
<path d="M0 0 C1.75570312 0.04060547 1.75570312 0.04060547 3.546875 0.08203125 C4.43890625 0.11683594 5.3309375 0.15164062 6.25 0.1875 C6.25 0.8475 6.25 1.5075 6.25 2.1875 C-2.165 2.6825 -2.165 2.6825 -10.75 3.1875 C-6.32129086 -0.13403186 -5.28391318 -0.1585174 0 0 Z " fill="#181817" transform="translate(127.75,79.8125)"/>
<path d="M0 0 C4.62 0 9.24 0 14 0 C14 0.33 14 0.66 14 1 C8.555 1.495 8.555 1.495 3 2 C3 2.99 3 3.98 3 5 C1.35 4.67 -0.3 4.34 -2 4 C-1.34 2.68 -0.68 1.36 0 0 Z " fill="#E6E5E5" transform="translate(118,76)"/>
<path d="M0 0 C-1.98780365 2.98170547 -3.56237816 4.81831749 -7 6 C-7.99 5.67 -8.98 5.34 -10 5 C-9.34 4.67 -8.68 4.34 -8 4 C-8 3.01 -8 2.02 -8 1 C-2.25 -1.125 -2.25 -1.125 0 0 Z " fill="#E7E6E6" transform="translate(144,162)"/>
<path d="M0 0 C3.16115776 1.36983503 3.9927092 1.9890638 6 5 C5.625 7.6875 5.625 7.6875 5 10 C0 3.40909091 0 3.40909091 0 0 Z " fill="#302D2B" transform="translate(164,96)"/>
<path d="M0 0 C1.32 0.33 2.64 0.66 4 1 C1.03 4.96 1.03 4.96 -2 9 C-3.21185923 5.36442231 -2.59260392 4.36216382 -1 1 C-0.67 0.67 -0.34 0.34 0 0 Z " fill="#3F3F3F" transform="translate(95,96)"/>
<path d="M0 0 C0.99 0.33 1.98 0.66 3 1 C1.375 6.75 1.375 6.75 -2 9 C-1.125 2.25 -1.125 2.25 0 0 Z " fill="#302D2E" transform="translate(168,144)"/>
<path d="M0 0 C0 0.66 0 1.32 0 2 C-2.8125 2.625 -2.8125 2.625 -6 3 C-6.99 2.34 -7.98 1.68 -9 1 C-2.25 -1.125 -2.25 -1.125 0 0 Z " fill="#393737" transform="translate(146,166)"/>
<path d="M0 0 C4.08072342 0.55144911 4.91330796 0.91330796 8 4 C3.545 3.01 3.545 3.01 -1 2 C-0.67 1.34 -0.34 0.68 0 0 Z " fill="#EFEEEF" transform="translate(141,79)"/>
</svg>
