<?xml version="1.0" encoding="UTF-8"?>
<svg version="1.1" xmlns="http://www.w3.org/2000/svg" width="200" height="200">
<path d="M0 0 C66 0 132 0 200 0 C200 66 200 132 200 200 C134 200 68 200 0 200 C0 134 0 68 0 0 Z " fill="#F9FBF9" transform="translate(0,0)"/>
<path d="M0 0 C0.495 0.99 0.495 0.99 1 2 C-1.93172428 8.85768548 -6.43811028 13.74170488 -12.14453125 18.40625 C-14.10039364 19.87820486 -14.10039364 19.87820486 -15 22 C-14.44570313 21.6390625 -13.89140625 21.278125 -13.3203125 20.90625 C-12.59585938 20.4421875 -11.87140625 19.978125 -11.125 19.5 C-10.40570313 19.0359375 -9.68640625 18.571875 -8.9453125 18.09375 C-7 17 -7 17 -5 17 C-6.33396614 21.07247865 -7.92261825 23.18960469 -11.1875 25.9375 C-11.98800781 26.62457031 -12.78851563 27.31164062 -13.61328125 28.01953125 C-15.08030477 29.23684864 -16.5552233 30.44481561 -18.04296875 31.63671875 C-21.84850399 34.72820899 -24.21731983 37.28114073 -26 42 C-26 42.99 -26 43.98 -26 45 C-25.62488281 44.32453125 -25.24976562 43.6490625 -24.86328125 42.953125 C-21.31870307 36.7746663 -17.97764458 31.55846968 -11 29 C-10.01 29.33 -9.02 29.66 -8 30 C-8.42152344 30.38671875 -8.84304687 30.7734375 -9.27734375 31.171875 C-10.09912109 31.95304687 -10.09912109 31.95304687 -10.9375 32.75 C-11.48277344 33.26046875 -12.02804688 33.7709375 -12.58984375 34.296875 C-14.16044692 36.19378076 -14.58731286 37.59701161 -15 40 C-15.66 40 -16.32 40 -17 40 C-17.24492188 40.60714844 -17.48984375 41.21429688 -17.7421875 41.83984375 C-19.58524055 45.00508703 -22.17184974 46.04522094 -25.3203125 47.75390625 C-25.87460937 48.16511719 -26.42890625 48.57632813 -27 49 C-27 49.99 -27 50.98 -27 52 C-26.46375 51.195625 -25.9275 50.39125 -25.375 49.5625 C-22.56894631 46.53491576 -21.03174806 46.27489191 -17 46 C-18.38442374 48.95432052 -19.98552107 51.51242769 -21.9375 54.125 C-22.44152344 54.80820313 -22.94554688 55.49140625 -23.46484375 56.1953125 C-25 58 -25 58 -28 60 C-28 61.32 -28 62.64 -28 64 C-26.02 61.36 -24.04 58.72 -22 56 C-20.83630765 59.49107704 -21.22804525 60.21365417 -22.4375 63.5625 C-24.06055202 68.77295203 -25.11306467 73.5760182 -24 79 C-21.70863257 83.30892366 -19.05157484 86.29895011 -15 89 C-14.01 89 -13.02 89 -12 89 C-12.83144531 88.20335938 -12.83144531 88.20335938 -13.6796875 87.390625 C-14.76636719 86.33101562 -14.76636719 86.33101562 -15.875 85.25 C-16.95394531 84.20585937 -16.95394531 84.20585937 -18.0546875 83.140625 C-21.61933427 79.21808197 -22.25065674 76.52758296 -22.125 71.25 C-22.10695313 70.26515625 -22.08890625 69.2803125 -22.0703125 68.265625 C-22.04710938 67.51796875 -22.02390625 66.7703125 -22 66 C-21.34 66 -20.68 66 -20 66 C-19.74476562 66.88751953 -19.74476562 66.88751953 -19.484375 67.79296875 C-17.68562277 73.65804916 -15.60065984 77.56712467 -11.0625 81.8125 C-9.14636897 83.84476018 -7.96078301 85.66794034 -6.5625 88.0625 C-3.99568907 92.29852541 -1.47612107 94.2638559 3.3125 95.6875 C3.869375 95.790625 4.42625 95.89375 5 96 C3.30193444 94.12319069 1.88213362 92.93728033 -0.37109375 91.73828125 C-3.47646524 89.6849524 -4.90616431 87.64337715 -6.875 84.5 C-7.79925781 83.06140625 -7.79925781 83.06140625 -8.7421875 81.59375 C-10 79 -10 79 -9 76 C-8.38125 76.680625 -7.7625 77.36125 -7.125 78.0625 C-4.67753317 80.56574955 -2.0240741 82.27122435 0.9375 84.125 C5.02891403 86.87476866 6.97420292 89.26216135 9.125 93.6875 C11.38715461 98.33961456 13.20201003 100.61175765 18.0625 102.48046875 C23.81036555 104.02173109 27.25564141 102.67126991 32.265625 99.875 C34 99 34 99 36 99 C36.2475 98.13375 36.495 97.2675 36.75 96.375 C39.9681403 87.6860212 45.52924553 84.1526233 53 79 C54.33866889 78.0071539 55.67420869 77.00997781 57 76 C55.41131948 82.19585403 52.2540147 88.55459817 47.05078125 92.46484375 C45.125 93.5625 45.125 93.5625 42 95 C42 95.33 42 95.66 42 96 C47.55406678 94.03974114 50.54742814 91.82281132 54 87 C55.01857787 85.62332835 56.0394946 84.24838474 57.0625 82.875 C57.56523437 82.19179687 58.06796875 81.50859375 58.5859375 80.8046875 C60 79 60 79 62.1875 77 C64.88674442 74.0215234 65.73379245 70.79862266 67 67 C67.66 67 68.32 67 69 67 C70.06562458 76.20158371 70.06562458 76.20158371 67.51171875 80.51171875 C65.76507133 82.52596846 64.09277331 84.34756134 62 86 C61.34 86 60.68 86 60 86 C59.505 87.485 59.505 87.485 59 89 C58.34 89 57.68 89 57 89 C57 89.66 57 90.32 57 91 C58.65 90.67 60.3 90.34 62 90 C62 89.34 62 88.68 62 88 C62.7425 87.5875 63.485 87.175 64.25 86.75 C67.76555718 84.51282725 69.15755809 82.75312241 71 79 C72.01790913 72.24786943 70.52091155 67.19724089 68 61 C67.8125 58 67.8125 58 68 56 C73.57142857 61.14285714 73.57142857 61.14285714 74 65 C74.66 65 75.32 65 76 65 C75.81584568 62.05908413 75.81584568 62.05908413 75 59 C74.41089844 58.70867187 73.82179688 58.41734375 73.21484375 58.1171875 C70.25330719 56.6233613 68.83465266 54.61020831 66.8125 52 C66.11769531 51.113125 65.42289062 50.22625 64.70703125 49.3125 C63 47 63 47 62 45 C66.52671196 45.53255435 69.4200555 47.21559872 73 50 C74.375 52.25 74.375 52.25 75 54 C75.33 53.01 75.66 52.02 76 51 C76.66 51 77.32 51 78 51 C78.185625 49.8553125 78.185625 49.8553125 78.375 48.6875 C79 46 79 46 81 43 C81.45601261 40.49103314 81.45601261 40.49103314 81.625 37.8125 C81.69976562 36.91144531 81.77453125 36.01039062 81.8515625 35.08203125 C81.92503906 34.05142578 81.92503906 34.05142578 82 33 C85.46353113 36.97151569 85.60921153 39.92955805 85.5 45.0625 C84.78461689 49.26537578 82.77172165 52.08369574 80.40234375 55.5625 C78.21820518 59.3588857 78.13971476 62.66884249 78 67 C84.70989348 59.37792388 84.70989348 59.37792388 88 50 C88.66 50 89.32 50 90 50 C90.43086426 56.78611216 90.09520349 62.34717503 86 68 C83.48179871 70.06580583 80.92882814 71.80448777 78.14453125 73.4921875 C75.7070227 74.88863345 75.7070227 74.88863345 75 78 C76.15628906 77.36771484 76.15628906 77.36771484 77.3359375 76.72265625 C78.33882813 76.17480469 79.34171875 75.62695312 80.375 75.0625 C81.37273437 74.51722656 82.37046875 73.97195312 83.3984375 73.41015625 C84.92070346 72.5850241 86.45128783 71.77435609 88 71 C86.65620855 76.50954492 84.2382429 80.3108412 80 84 C76.76735811 85.92028578 73.45374636 87.5188479 70 89 C74.92127034 89.16682272 78.50343896 89.24828052 83 87 C82 90 82 90 79.85546875 91.3515625 C78.97503906 91.77179688 78.09460938 92.19203125 77.1875 92.625 C76.31480469 93.05039063 75.44210938 93.47578125 74.54296875 93.9140625 C72 95 72 95 69.80078125 95.49609375 C66.92359209 96.30120742 65.79333182 98.70229361 64 101 C60.65231399 103.2067706 57.82669676 103.24090131 53.875 103.1875 C52.82054688 103.18105469 51.76609375 103.17460938 50.6796875 103.16796875 C48 103 48 103 46 102 C39.93646412 101.43290672 35.27892008 101.66594521 30 105 C31.80202112 106.80202112 34.31357962 106.27345226 36.72875977 106.44360352 C44.27084758 107.02983338 49.40901891 107.7171512 54.84765625 113.44140625 C56 115 56 115 56 116 C46.15083943 117.065414 36.26360539 113.9486838 27.39453125 109.7734375 C22.00483036 108.03255532 16.56488923 110.70001381 11.4375 112.5 C5.84198111 114.45257389 0.66446729 116.16380453 -5.3125 116.0625 C-7.1378125 116.0315625 -7.1378125 116.0315625 -9 116 C-9 114 -9 114 -6.625 111 C-1.37426602 106.50405903 5.61905848 106.80163267 12.2109375 106.32421875 C15.78666704 106.42808215 15.78666704 106.42808215 17 105 C10.97163151 101.98581576 6.35819795 101.09145059 -0.3984375 102.5 C-5.94793436 103.56656997 -11.75710463 103.86969412 -17.0625 101.8125 C-19.31296033 99.70723066 -20.12800528 97.93307315 -21 95 C-21.804375 95.12375 -22.60875 95.2475 -23.4375 95.375 C-28.51534744 94.84048974 -32.15526686 92.29792665 -36 89 C-36 88.34 -36 87.68 -36 87 C-35.21882813 87.47566406 -35.21882813 87.47566406 -34.421875 87.9609375 C-31.32591291 89.28920511 -28.60595879 89.42364247 -25.25 89.625 C-24.07953125 89.69976562 -22.9090625 89.77453125 -21.703125 89.8515625 C-20.36507812 89.92503906 -20.36507812 89.92503906 -19 90 C-19 89.34 -19 88.68 -19 88 C-19.71285156 87.92523438 -20.42570312 87.85046875 -21.16015625 87.7734375 C-28.06868905 86.82502519 -32.45550772 85.3921696 -37 80 C-38.90265354 77.45366268 -40.73471889 74.92596257 -42 72 C-41.505 71.01 -41.505 71.01 -41 70 C-40.48050781 70.40992187 -39.96101563 70.81984375 -39.42578125 71.2421875 C-35.7576223 74.07636576 -32.48550294 76.59828033 -28 78 C-29.47351901 73.57944298 -32.73183687 72.35489133 -36.5546875 69.9140625 C-40.10033022 67.13871915 -41.59282867 64.22151398 -43 60 C-43.0685495 58.10529184 -43.08480372 56.2083166 -43.0625 54.3125 C-43.05347656 53.31863281 -43.04445313 52.32476562 -43.03515625 51.30078125 C-43.02355469 50.54152344 -43.01195313 49.78226563 -43 49 C-41 50 -41 50 -40.359375 51.8203125 C-40.15828125 52.58085938 -39.9571875 53.34140625 -39.75 54.125 C-38.20944512 59.11384351 -35.64159104 62.3348388 -32 66 C-31.18595944 59.75902237 -33.18260361 56.42175715 -36.58984375 51.234375 C-39.18021513 47.12996384 -39.31813086 43.77196284 -39 39 C-38.17622019 36.53344999 -37.14851609 34.34488701 -36 32 C-35.67 32 -35.34 32 -35 32 C-34.96261719 32.73605469 -34.92523438 33.47210938 -34.88671875 34.23046875 C-34.50530088 41.62735589 -34.50530088 41.62735589 -31 48 C-30.67 48 -30.34 48 -30 48 C-29.94577053 46.5629191 -29.90710277 45.12524538 -29.875 43.6875 C-29.85179687 42.88699219 -29.82859375 42.08648437 -29.8046875 41.26171875 C-29.84182678 38.71611424 -29.84182678 38.71611424 -32 36 C-32.59617327 30.99833856 -32.64551609 26.43136176 -30.5625 21.8125 C-30.046875 21.214375 -29.53125 20.61625 -29 20 C-28.67 20 -28.34 20 -28 20 C-27.34 23.96 -26.68 27.92 -26 32 C-26.061875 30.1025 -26.12375 28.205 -26.1875 26.25 C-26.33550778 21.71109462 -26.13107836 19.38583802 -23 16 C-21.11608215 19.26545761 -20.50712033 22.28111761 -20 26 C-20.02320312 25.27554688 -20.04640625 24.55109375 -20.0703125 23.8046875 C-20.26415094 13.42048518 -20.26415094 13.42048518 -18 9 C-15.375 6.625 -15.375 6.625 -13 5 C-13.33 7.64 -13.66 10.28 -14 13 C-13.34 13 -12.68 13 -12 13 C-11.66355469 12.15695313 -11.66355469 12.15695313 -11.3203125 11.296875 C-9.61328077 8.32724583 -7.45193456 6.49655833 -4.875 4.25 C-3.96492188 3.45078125 -3.05484375 2.6515625 -2.1171875 1.828125 C-1.41851562 1.22484375 -0.71984375 0.6215625 0 0 Z " fill="#100E10" transform="translate(75,12)"/>
<path d="M0 0 C1.299375 -0.02126953 1.299375 -0.02126953 2.625 -0.04296875 C5 0.1875 5 0.1875 8 2.1875 C7.21496094 2.27386719 6.42992187 2.36023437 5.62109375 2.44921875 C-2.04337096 3.47428213 -7.44495485 4.70505176 -12.4375 11 C-13.63472821 15.65588747 -13.60526203 19.64071926 -11.875 24.0625 C-9.50882269 26.74416761 -7.42898584 27.34930346 -4 28.1875 C-3.814375 26.888125 -3.62875 25.58875 -3.4375 24.25 C-1.35843382 15.11644719 5.07587853 9.66178655 12.5703125 4.59765625 C17.51039537 1.73050204 21.24599507 0.76127741 27 1.1875 C27.99 1.8475 28.98 2.5075 30 3.1875 C29.63480128 11.40447129 27.45358072 16.01746406 21.4375 21.75 C18.28618378 24.45531988 15.36493345 25.95263653 11.5 27.4375 C5.632825 29.85770969 3.01588867 33.50160651 -0.34375 38.76171875 C-2 41.1875 -2 41.1875 -5 43.1875 C0.57132725 47.02733615 5.42314596 46.93447951 12 46.1875 C18.11298035 44.49418314 22.41909332 40.28440745 26.921875 35.9921875 C31.24081218 32.24153153 34.30425547 31.9684329 40 32.1875 C38.06520942 33.17201733 36.13948246 34.12830786 34.140625 34.9765625 C29.02380381 37.23895864 25.77537633 40.24087359 21.95703125 44.28515625 C16.92411321 49.17743386 11.37688372 51.52899764 4.44921875 51.484375 C1.12389749 51.08130576 -1.30979923 49.83648535 -4.17578125 48.16015625 C-6.13152724 47.11737091 -7.81382265 46.54359899 -10 46.1875 C-10.99 46.6825 -10.99 46.6825 -12 47.1875 C-18.34228973 47.95833214 -23.51452674 48.17509164 -28.75 44.1875 C-29.85786122 43.2147438 -30.95135005 42.22381289 -32 41.1875 C-31.125 37.3125 -31.125 37.3125 -30 36.1875 C-28.2534241 36.06148865 -26.5010766 36.01170506 -24.75 36 C-23.79609375 35.98582031 -22.8421875 35.97164062 -21.859375 35.95703125 C-18.8601717 36.19877031 -16.74361107 37.001702 -14 38.1875 C-11.33333333 38.52083333 -11.33333333 38.52083333 -9 37.1875 C-7.64292174 34.61932401 -6.78210717 31.97892315 -6 29.1875 C-7.216875 29.125625 -8.43375 29.06375 -9.6875 29 C-14.17383464 28.45909441 -16.14764741 26.73133201 -19 23.1875 C-20.61130379 19.96489242 -20.45154329 16.68205239 -20 13.1875 C-17.3745908 7.71789749 -13.04567326 4.36824269 -8 1.1875 C-5.07345473 0.21198491 -3.05345004 0.02271912 0 0 Z " fill="#0A080A" transform="translate(96,39.8125)"/>
<path d="M0 0 C0.495 0.99 0.495 0.99 1 2 C-1.93172428 8.85768548 -6.43811028 13.74170488 -12.14453125 18.40625 C-14.10039364 19.87820486 -14.10039364 19.87820486 -15 22 C-14.44570313 21.6390625 -13.89140625 21.278125 -13.3203125 20.90625 C-12.59585938 20.4421875 -11.87140625 19.978125 -11.125 19.5 C-10.40570313 19.0359375 -9.68640625 18.571875 -8.9453125 18.09375 C-7 17 -7 17 -5 17 C-6.33396614 21.07247865 -7.92261825 23.18960469 -11.1875 25.9375 C-11.98800781 26.62457031 -12.78851563 27.31164062 -13.61328125 28.01953125 C-15.08030477 29.23684864 -16.5552233 30.44481561 -18.04296875 31.63671875 C-21.84850399 34.72820899 -24.21731983 37.28114073 -26 42 C-26 42.99 -26 43.98 -26 45 C-25.62488281 44.32453125 -25.24976562 43.6490625 -24.86328125 42.953125 C-21.31870307 36.7746663 -17.97764458 31.55846968 -11 29 C-10.01 29.33 -9.02 29.66 -8 30 C-8.42152344 30.38671875 -8.84304687 30.7734375 -9.27734375 31.171875 C-10.09912109 31.95304687 -10.09912109 31.95304687 -10.9375 32.75 C-11.48277344 33.26046875 -12.02804688 33.7709375 -12.58984375 34.296875 C-14.16044692 36.19378076 -14.58731286 37.59701161 -15 40 C-15.66 40 -16.32 40 -17 40 C-17.24492188 40.60714844 -17.48984375 41.21429688 -17.7421875 41.83984375 C-19.58524055 45.00508703 -22.17184974 46.04522094 -25.3203125 47.75390625 C-25.87460937 48.16511719 -26.42890625 48.57632813 -27 49 C-27 49.99 -27 50.98 -27 52 C-26.46375 51.195625 -25.9275 50.39125 -25.375 49.5625 C-22.56894631 46.53491576 -21.03174806 46.27489191 -17 46 C-18.38442374 48.95432052 -19.98552107 51.51242769 -21.9375 54.125 C-22.44152344 54.80820313 -22.94554688 55.49140625 -23.46484375 56.1953125 C-25 58 -25 58 -28 60 C-28 61.32 -28 62.64 -28 64 C-26.02 61.36 -24.04 58.72 -22 56 C-20.83630765 59.49107704 -21.22804525 60.21365417 -22.4375 63.5625 C-24.0592639 68.76881681 -25.12093705 73.58066653 -24 79 C-21.88106746 82.87498978 -19.10467344 85.89532656 -16 89 C-22.5447068 89 -29.43967534 87.05684618 -34.5625 82.94140625 C-38.3277364 78.83702171 -40.42643049 75.37959232 -42 70 C-41.24074219 70.49371094 -40.48148438 70.98742187 -39.69921875 71.49609375 C-38.70535156 72.13675781 -37.71148437 72.77742188 -36.6875 73.4375 C-35.70136719 74.07558594 -34.71523438 74.71367188 -33.69921875 75.37109375 C-31.04723007 77.10615606 -31.04723007 77.10615606 -28 78 C-29.47351901 73.57944298 -32.73183687 72.35489133 -36.5546875 69.9140625 C-40.10033022 67.13871915 -41.59282867 64.22151398 -43 60 C-43.0685495 58.10529184 -43.08480372 56.2083166 -43.0625 54.3125 C-43.05347656 53.31863281 -43.04445313 52.32476562 -43.03515625 51.30078125 C-43.02355469 50.54152344 -43.01195313 49.78226563 -43 49 C-41 50 -41 50 -40.359375 51.8203125 C-40.15828125 52.58085938 -39.9571875 53.34140625 -39.75 54.125 C-38.20944512 59.11384351 -35.64159104 62.3348388 -32 66 C-31.18595944 59.75902237 -33.18260361 56.42175715 -36.58984375 51.234375 C-39.18021513 47.12996384 -39.31813086 43.77196284 -39 39 C-38.17622019 36.53344999 -37.14851609 34.34488701 -36 32 C-35.67 32 -35.34 32 -35 32 C-34.96261719 32.73605469 -34.92523438 33.47210938 -34.88671875 34.23046875 C-34.50530088 41.62735589 -34.50530088 41.62735589 -31 48 C-30.67 48 -30.34 48 -30 48 C-29.94577053 46.5629191 -29.90710277 45.12524538 -29.875 43.6875 C-29.85179687 42.88699219 -29.82859375 42.08648437 -29.8046875 41.26171875 C-29.84182678 38.71611424 -29.84182678 38.71611424 -32 36 C-32.59617327 30.99833856 -32.64551609 26.43136176 -30.5625 21.8125 C-30.046875 21.214375 -29.53125 20.61625 -29 20 C-28.67 20 -28.34 20 -28 20 C-27.34 23.96 -26.68 27.92 -26 32 C-26.061875 30.1025 -26.12375 28.205 -26.1875 26.25 C-26.33550778 21.71109462 -26.13107836 19.38583802 -23 16 C-21.11608215 19.26545761 -20.50712033 22.28111761 -20 26 C-20.02320312 25.27554688 -20.04640625 24.55109375 -20.0703125 23.8046875 C-20.26415094 13.42048518 -20.26415094 13.42048518 -18 9 C-15.375 6.625 -15.375 6.625 -13 5 C-13.33 7.64 -13.66 10.28 -14 13 C-13.34 13 -12.68 13 -12 13 C-11.66355469 12.15695313 -11.66355469 12.15695313 -11.3203125 11.296875 C-9.61328077 8.32724583 -7.45193456 6.49655833 -4.875 4.25 C-3.96492188 3.45078125 -3.05484375 2.6515625 -2.1171875 1.828125 C-1.41851562 1.22484375 -0.71984375 0.6215625 0 0 Z " fill="#1C1A1C" transform="translate(75,12)"/>
<path d="M0 0 C2.0625 0.4375 2.0625 0.4375 4 1 C3.6875 2.9375 3.6875 2.9375 3 5 C2.01 5.33 1.02 5.66 0 6 C-1.17632692 7.48735292 -1.17632692 7.48735292 -2.1875 9.375 C-4.91555984 13.99685062 -8.08300951 18.2144862 -11.328125 22.484375 C-12.84809289 24.77142949 -13.57450614 26.32189161 -14 29 C-11.48313064 28.59688639 -11.48313064 28.59688639 -9 27 C-8.25241856 24.98761507 -7.86593003 23.01579387 -7.45703125 20.91015625 C-6.88017143 18.49917803 -6.09177196 17.33873405 -4 16 C-3.01 16 -2.02 16 -1 16 C-1.33 18.64 -1.66 21.28 -2 24 C-1.40832031 23.4946875 -0.81664062 22.989375 -0.20703125 22.46875 C0.58316406 21.8190625 1.37335938 21.169375 2.1875 20.5 C2.96480469 19.8503125 3.74210937 19.200625 4.54296875 18.53125 C7.31331341 16.8047395 8.79907334 16.68161298 12 17 C11.59007813 17.51949219 11.18015625 18.03898437 10.7578125 18.57421875 C7.92363424 22.2423777 5.40171967 25.51449706 4 30 C10.68282981 26.03333921 10.68282981 26.03333921 14.75 19.75 C14.8325 19.1725 14.915 18.595 15 18 C16.98 17.67 18.96 17.34 21 17 C19.87548273 19.9719385 18.77706209 22.33440687 17 25 C17 25.99 17 26.98 17 28 C18.25160238 26.91851833 19.50120381 25.83472078 20.75 24.75 C21.48476562 24.11449219 22.21953125 23.47898438 22.9765625 22.82421875 C25.10191744 20.98137289 25.10191744 20.98137289 27.125 18.5625 C29.74335805 16.38053495 31.69949002 16.69995364 35 17 C35.495 18.485 35.495 18.485 36 20 C36.7425 19.319375 37.485 18.63875 38.25 17.9375 C41 16 41 16 43.3125 16.25 C45 17 45 17 45.8125 19.0625 C46.09224822 23.4452221 43.7158695 25.73907711 41 29 C41.78375 28.484375 42.5675 27.96875 43.375 27.4375 C44.24125 26.963125 45.1075 26.48875 46 26 C46.66 26.33 47.32 26.66 48 27 C44.744666 29.88329583 42.40021656 31.63331529 38 32 C37.67 31.67 37.34 31.34 37 31 C37.38422612 26.92720311 37.87944471 23.53425882 40 20 C39.05125 20.825 38.1025 21.65 37.125 22.5 C34.25 25 34.25 25 32 25 C31.5359375 26.2065625 31.5359375 26.2065625 31.0625 27.4375 C30 30 30 30 29 31 C27.33382885 31.04063832 25.66611905 31.042721 24 31 C25.2491742 27.54074837 26.67527795 24.85306797 29 22 C28.67 21.67 28.34 21.34 28 21 C27.43152344 21.63808594 26.86304688 22.27617187 26.27734375 22.93359375 C19.18294214 30.52543253 19.18294214 30.52543253 15.125 31.125 C12 31 12 31 9 30 C5.84979639 30.88319294 5.84979639 30.88319294 3 32 C1.68 30.35 0.36 28.7 -1 27 C-1.59167969 27.20496094 -2.18335938 27.40992188 -2.79296875 27.62109375 C-11.8683274 30.71530249 -11.8683274 30.71530249 -15 31 C-17.1385485 28.8614515 -17.42655063 27.86724686 -18 25 C-18.44730469 25.3609375 -18.89460938 25.721875 -19.35546875 26.09375 C-24.35506003 29.93138937 -24.35506003 29.93138937 -27.9375 30.3125 C-28.618125 30.209375 -29.29875 30.10625 -30 30 C-30.6875 27.75 -30.6875 27.75 -31 25 C-29.5625 22.875 -29.5625 22.875 -28 21 C-28 20.01 -28 19.02 -28 18 C-30.43438204 18.39012533 -31.71985758 18.71912036 -33.484375 20.48828125 C-33.90203125 21.09027344 -34.3196875 21.69226563 -34.75 22.3125 C-35.17796875 22.90675781 -35.6059375 23.50101563 -36.046875 24.11328125 C-37.30060382 26.24274754 -37.30060382 26.24274754 -37 30 C-38.875 29.6875 -38.875 29.6875 -41 29 C-41.66 28.01 -42.32 27.02 -43 26 C-44.6396875 27.0209375 -44.6396875 27.0209375 -46.3125 28.0625 C-48.17578125 29.22265625 -48.17578125 29.22265625 -50 30 C-50.99 29.67 -51.98 29.34 -53 29 C-52.31035156 28.57589844 -51.62070312 28.15179688 -50.91015625 27.71484375 C-49.97042969 27.12832031 -49.03070313 26.54179687 -48.0625 25.9375 C-47.05058594 25.30714844 -46.03867188 24.67679688 -44.99609375 24.02734375 C-42.27516181 22.18619163 -40.02825651 20.22424299 -37.625 18 C-33.68372427 14.77662513 -30.96567989 14.67655322 -25.9375 15.0625 C-23.95278729 15.33758618 -21.97063112 15.63755007 -20 16 C-20.61875 17.051875 -21.2375 18.10375 -21.875 19.1875 C-23.51579108 22.05015677 -24.86984453 24.89207246 -26 28 C-16.31956524 21.43481153 -9.64206709 12.72129868 -2.78515625 3.40625 C-1 1 -1 1 0 0 Z " fill="#4E4C4E" transform="translate(113,159)"/>
<path d="M0 0 C1.63001953 0.01353516 1.63001953 0.01353516 3.29296875 0.02734375 C4.12441406 0.03894531 4.95585938 0.05054688 5.8125 0.0625 C6.3075 1.0525 6.3075 1.0525 6.8125 2.0625 C5.95527344 2.08828125 5.09804687 2.1140625 4.21484375 2.140625 C-4.40795901 2.56836268 -9.64857691 3.16061044 -15.625 9.75 C-17.62591917 13.99194863 -18.05418969 17.44890944 -17.1875 22.0625 C-15.68470824 24.7340404 -15.68470824 24.7340404 -13.1875 26.0625 C-10.70610622 26.54690279 -10.70610622 26.54690279 -8.1875 26.0625 C-6.58138329 24.21103591 -6.58138329 24.21103591 -5.4375 21.6875 C-1.17995358 13.94250599 4.64005273 7.26424291 11.8125 2.0625 C15.375 1.0625 15.375 1.0625 18.8125 1.0625 C21.3125 2.625 21.3125 2.625 22.8125 5.0625 C22.39043665 12.37826469 17.98398847 16.30442994 12.8125 21.0625 C9.26755047 23.6316456 5.60173904 25.87592272 1.8125 28.0625 C-1.37229682 30.18569788 -2.41090596 32.0772323 -4.2109375 35.375 C-5.31283667 37.27908177 -6.44215989 38.7138281 -8.1875 40.0625 C-8.8475 40.0625 -9.5075 40.0625 -10.1875 40.0625 C-9.8575 41.3825 -9.5275 42.7025 -9.1875 44.0625 C-6.5475 44.7225 -3.9075 45.3825 -1.1875 46.0625 C-1.1875 46.3925 -1.1875 46.7225 -1.1875 47.0625 C-9.54203315 46.17210758 -9.54203315 46.17210758 -13.5 45.5 C-18.73126467 44.87934148 -23.9260747 44.98474495 -29.1875 45.0625 C-29.1875 44.7325 -29.1875 44.4025 -29.1875 44.0625 C-28.57261719 44.02511719 -27.95773438 43.98773438 -27.32421875 43.94921875 C-26.51597656 43.88347656 -25.70773438 43.81773437 -24.875 43.75 C-24.07449219 43.69199219 -23.27398437 43.63398438 -22.44921875 43.57421875 C-19.80007517 42.9748443 -18.98276159 42.02623189 -17.1875 40.0625 C-16.5275 40.0625 -15.8675 40.0625 -15.1875 40.0625 C-14.7853125 38.9796875 -14.7853125 38.9796875 -14.375 37.875 C-13.19767502 35.08659874 -11.79604116 32.62154276 -10.1875 30.0625 C-10.98414063 29.75119141 -10.98414063 29.75119141 -11.796875 29.43359375 C-15.59450201 27.77732941 -18.48214765 26.30804396 -20.75 22.75 C-22.738409 17.64929866 -22.14052951 14.50463811 -20.1875 9.5 C-14.88395137 3.03630011 -8.24019332 -0.08860423 0 0 Z " fill="#131113" transform="translate(61.1875,142.9375)"/>
<path d="M0 0 C3.46353113 3.97151569 3.60921153 6.92955805 3.5 12.0625 C2.78461689 16.26537578 0.77172165 19.08369574 -1.59765625 22.5625 C-3.78179482 26.3588857 -3.86028524 29.66884249 -4 34 C2.70989348 26.37792388 2.70989348 26.37792388 6 17 C6.66 17 7.32 17 8 17 C8.43086426 23.78611216 8.09520349 29.34717503 4 35 C1.48179871 37.06580583 -1.07117186 38.80448777 -3.85546875 40.4921875 C-6.2929773 41.88863345 -6.2929773 41.88863345 -7 45 C-6.22914063 44.57847656 -5.45828125 44.15695313 -4.6640625 43.72265625 C-3.66117188 43.17480469 -2.65828125 42.62695312 -1.625 42.0625 C-0.62726563 41.51722656 0.37046875 40.97195312 1.3984375 40.41015625 C2.92070346 39.5850241 4.45128783 38.77435609 6 38 C4.37679849 44.65512621 0.80260228 49.1722159 -4.875 52.875 C-8.65399738 54.23543906 -12.00242051 54.65538108 -16 55 C-15.3566152 53.686298 -14.71021785 52.37407102 -14.0625 51.0625 C-13.70285156 50.33160156 -13.34320313 49.60070312 -12.97265625 48.84765625 C-12 47 -12 47 -11 46 C-10.3103049 39.19589258 -11.45721428 34.25101489 -14 28 C-14.1875 25 -14.1875 25 -14 23 C-8.42857143 28.14285714 -8.42857143 28.14285714 -8 32 C-7.34 32 -6.68 32 -6 32 C-6.18415432 29.05908413 -6.18415432 29.05908413 -7 26 C-7.58910156 25.70867187 -8.17820313 25.41734375 -8.78515625 25.1171875 C-11.74669281 23.6233613 -13.16534734 21.61020831 -15.1875 19 C-15.88230469 18.113125 -16.57710937 17.22625 -17.29296875 16.3125 C-19 14 -19 14 -20 12 C-15.47328804 12.53255435 -12.5799445 14.21559872 -9 17 C-7.625 19.25 -7.625 19.25 -7 21 C-6.67 20.01 -6.34 19.02 -6 18 C-5.34 18 -4.68 18 -4 18 C-3.87625 17.236875 -3.7525 16.47375 -3.625 15.6875 C-3 13 -3 13 -1 10 C-0.54398739 7.49103314 -0.54398739 7.49103314 -0.375 4.8125 C-0.30023438 3.91144531 -0.22546875 3.01039062 -0.1484375 2.08203125 C-0.09945312 1.39496094 -0.05046875 0.70789062 0 0 Z " fill="#171517" transform="translate(157,45)"/>
<path d="M0 0 C0.43570313 0.37511719 0.87140625 0.75023437 1.3203125 1.13671875 C1.91585937 1.64847656 2.51140625 2.16023437 3.125 2.6875 C4.07439453 3.50734375 4.07439453 3.50734375 5.04296875 4.34375 C6.27642773 5.38763545 7.52720691 6.41170171 8.80078125 7.40625 C10.25149959 8.54189586 11.63224766 9.76568692 13 11 C13 11.99 13 12.98 13 14 C13.66 14 14.32 14 15 14 C15 11.69 15 9.38 15 7 C16.9375 7.8125 16.9375 7.8125 19 9 C20.2062252 12.61867559 20.10816918 15.92506251 20.0625 19.6875 C20.05798828 20.38939453 20.05347656 21.09128906 20.04882812 21.81445312 C20.03706927 23.54300538 20.01913454 25.27151365 20 27 C20.66 27 21.32 27 22 27 C22.33 22.71 22.66 18.42 23 14 C23.66 14.33 24.32 14.66 25 15 C26.02319033 18.06957098 26.13371939 20.22440323 26.125 23.4375 C26.12886719 24.85869141 26.12886719 24.85869141 26.1328125 26.30859375 C26.01473475 28.70140459 25.68112635 30.71336153 25 33 C25.66 33 26.32 33 27 33 C27.66 28.71 28.32 24.42 29 20 C32.97867897 23.97867897 33.11200215 26.37464517 33.23046875 31.8671875 C33 34 33 34 32.02734375 36.39453125 C30.88964992 39.27986122 30.59805181 41.72694991 30.375 44.8125 C30.30023438 45.78832031 30.22546875 46.76414063 30.1484375 47.76953125 C30.09945312 48.50558594 30.05046875 49.24164063 30 50 C21.55456378 45.89842544 17.08451572 40.77355521 12 33 C11.01079941 31.65863503 10.01483424 30.32207763 9 29 C14.32195429 30.17082994 18.34094644 31.77801512 22 36 C23.85676273 38.91218575 25.47494316 41.90265005 27 45 C25.35068922 37.93152521 22.98465894 34.10887032 17 30 C15.96875 29.360625 14.9375 28.72125 13.875 28.0625 C10.20972333 25.43306239 8.4001544 22.81200992 6 19 C6 18.34 6 17.68 6 17 C6.66 17 7.32 17 8 17 C8 17.66 8 18.32 8 19 C9.11375 19.433125 9.11375 19.433125 10.25 19.875 C12.56739797 20.82302644 14.77917115 21.84845911 17 23 C14.64397477 19.76046531 12.13469843 17.21959549 9.0625 14.6875 C5.14197975 11.33856962 2.13608902 7.72404302 0 3 C0 2.01 0 1.02 0 0 Z " fill="#181718" transform="translate(121,12)"/>
<path d="M0 0 C0.66 0.33 1.32 0.66 2 1 C2 1.66 2 2.32 2 3 C0.02 3.99 -1.96 4.98 -4 6 C-2.19797888 7.80202112 0.31357962 7.27345226 2.72875977 7.44360352 C10.27084758 8.02983338 15.40901891 8.7171512 20.84765625 14.44140625 C22 16 22 16 22 17 C12.15083943 18.065414 2.26360539 14.9486838 -6.60546875 10.7734375 C-11.99516964 9.03255532 -17.43511077 11.70001381 -22.5625 13.5 C-28.15801889 15.45257389 -33.33553271 17.16380453 -39.3125 17.0625 C-41.1378125 17.0315625 -41.1378125 17.0315625 -43 17 C-43 15 -43 15 -41.85327148 13.54052734 C-36.63545556 8.60424002 -32.07920549 7.96072754 -25.0625 7.625 C-24.09248047 7.55667969 -23.12246094 7.48835938 -22.12304688 7.41796875 C-19.74916165 7.25425253 -17.37663073 7.1156216 -15 7 C-15 6.34 -15 5.68 -15 5 C-14.12988281 4.83564453 -14.12988281 4.83564453 -13.2421875 4.66796875 C-8.36502962 3.67805057 -4.45395252 2.28129276 0 0 Z " fill="#1E1D1E" transform="translate(109,111)"/>
<path d="M0 0 C1.6875 0.75 1.6875 0.75 2.5 2.8125 C2.77974822 7.1952221 0.4033695 9.48907711 -2.3125 12.75 C-1.52875 12.234375 -0.745 11.71875 0.0625 11.1875 C1.361875 10.4759375 1.361875 10.4759375 2.6875 9.75 C3.3475 10.08 4.0075 10.41 4.6875 10.75 C1.432166 13.63329583 -0.91228344 15.38331529 -5.3125 15.75 C-5.6425 15.42 -5.9725 15.09 -6.3125 14.75 C-5.92827388 10.67720311 -5.43305529 7.28425882 -3.3125 3.75 C-4.735625 4.9875 -4.735625 4.9875 -6.1875 6.25 C-9.0625 8.75 -9.0625 8.75 -11.3125 8.75 C-11.621875 9.554375 -11.93125 10.35875 -12.25 11.1875 C-13.3125 13.75 -13.3125 13.75 -14.3125 14.75 C-15.97867115 14.79063832 -17.64638095 14.792721 -19.3125 14.75 C-18.0633258 11.29074837 -16.63722205 8.60306797 -14.3125 5.75 C-14.6425 5.42 -14.9725 5.09 -15.3125 4.75 C-15.91578125 5.38808594 -16.5190625 6.02617187 -17.140625 6.68359375 C-17.93984375 7.50988281 -18.7390625 8.33617187 -19.5625 9.1875 C-20.74585938 10.42306641 -20.74585938 10.42306641 -21.953125 11.68359375 C-24.21984717 13.66885207 -25.3796937 14.3800359 -28.3125 14.75 C-28.3125 13.43 -28.3125 12.11 -28.3125 10.75 C-27.6525 11.08 -26.9925 11.41 -26.3125 11.75 C-25.06089762 10.66851833 -23.81129619 9.58472078 -22.5625 8.5 C-21.82773438 7.86449219 -21.09296875 7.22898438 -20.3359375 6.57421875 C-18.21058256 4.73137289 -18.21058256 4.73137289 -16.1875 2.3125 C-13.56914195 0.13053495 -11.61300998 0.44995364 -8.3125 0.75 C-7.9825 1.74 -7.6525 2.73 -7.3125 3.75 C-6.57 3.069375 -5.8275 2.38875 -5.0625 1.6875 C-2.3125 -0.25 -2.3125 -0.25 0 0 Z " fill="#333233" transform="translate(156.3125,175.25)"/>
<path d="M0 0 C0.61544028 4.10293518 -0.01242055 6.54021432 -2.3125 9.875 C-6.35023169 14.89069549 -11.5389436 18.64484116 -17 22 C-17.66 22 -18.32 22 -19 22 C-17.11664535 10.32320119 -12.80264055 -0.62963806 0 0 Z " fill="#EFF1EF" transform="translate(81,147)"/>
<path d="M0 0 C1.299375 -0.02126953 1.299375 -0.02126953 2.625 -0.04296875 C5 0.1875 5 0.1875 8 2.1875 C7.21496094 2.27386719 6.42992188 2.36023437 5.62109375 2.44921875 C-2.04337096 3.47428213 -7.44495485 4.70505176 -12.4375 11 C-13.64018997 15.67712764 -13.63430364 19.65181751 -11.8125 24.0625 C-9.72305703 26.51219175 -8.05665662 27.27876425 -5 28.1875 C-5.33 29.5075 -5.66 30.8275 -6 32.1875 C-6 31.1975 -6 30.2075 -6 29.1875 C-7.216875 29.125625 -8.43375 29.06375 -9.6875 29 C-14.17383464 28.45909441 -16.14764741 26.73133201 -19 23.1875 C-20.61130379 19.96489242 -20.45154329 16.68205239 -20 13.1875 C-17.3745908 7.71789749 -13.04567326 4.36824269 -8 1.1875 C-5.07345473 0.21198491 -3.05345004 0.02271912 0 0 Z " fill="#191719" transform="translate(96,39.8125)"/>
<path d="M0 0 C1.0209375 0.4021875 1.0209375 0.4021875 2.0625 0.8125 C1.46018527 7.23719041 -1.8196582 12.01859937 -6.64453125 16.10546875 C-14.35154867 21.8125 -14.35154867 21.8125 -16.9375 21.8125 C-15.76866586 14.41894451 -12.40997005 6.18799643 -6.375 1.5 C-2.9375 -0.1875 -2.9375 -0.1875 0 0 Z " fill="#E6E7E6" transform="translate(120.9375,44.1875)"/>
<path d="M0 0 C2.475 0.495 2.475 0.495 5 1 C5.495 2.485 5.495 2.485 6 4 C2.60583457 5.1508153 -0.79060608 6.2947661 -4.1875 7.4375 C-5.14720703 7.76298828 -6.10691406 8.08847656 -7.09570312 8.42382812 C-8.02705078 8.73642578 -8.95839844 9.04902344 -9.91796875 9.37109375 C-10.77156982 9.65911865 -11.6251709 9.94714355 -12.50463867 10.24389648 C-16.47086402 11.44567712 -20.16894752 12.1327297 -24.3125 12.0625 C-26.1378125 12.0315625 -26.1378125 12.0315625 -28 12 C-28 10 -28 10 -26.85327148 8.54052734 C-21.63545556 3.60424002 -17.07920549 2.96072754 -10.0625 2.625 C-9.09248047 2.55667969 -8.12246094 2.48835938 -7.12304688 2.41796875 C-4.74916165 2.25425253 -2.37663073 2.1156216 0 2 C0 1.34 0 0.68 0 0 Z " fill="#191819" transform="translate(94,116)"/>
<path d="M0 0 C-0.598125 1.010625 -1.19625 2.02125 -1.8125 3.0625 C-3.84675778 6.60978225 -5.45554069 10.21607469 -7 14 C-7.99 14 -8.98 14 -10 14 C-10.6875 11.75 -10.6875 11.75 -11 9 C-9.5625 6.875 -9.5625 6.875 -8 5 C-8 4.01 -8 3.02 -8 2 C-10.43438204 2.39012533 -11.71985758 2.71912036 -13.484375 4.48828125 C-13.90203125 5.09027344 -14.3196875 5.69226563 -14.75 6.3125 C-15.17796875 6.90675781 -15.6059375 7.50101563 -16.046875 8.11328125 C-17.30060382 10.24274754 -17.30060382 10.24274754 -17 14 C-18.875 13.6875 -18.875 13.6875 -21 13 C-21.66 12.01 -22.32 11.02 -23 10 C-24.093125 10.680625 -25.18625 11.36125 -26.3125 12.0625 C-28.17578125 13.22265625 -28.17578125 13.22265625 -30 14 C-30.99 13.67 -31.98 13.34 -33 13 C-32.31035156 12.57589844 -31.62070312 12.15179688 -30.91015625 11.71484375 C-29.97042969 11.12832031 -29.03070313 10.54179687 -28.0625 9.9375 C-27.05058594 9.30714844 -26.03867188 8.67679688 -24.99609375 8.02734375 C-22.27516181 6.18619163 -20.02825651 4.22424299 -17.625 2 C-12.19435825 -2.44145381 -6.53700706 -1.20232433 0 0 Z " fill="#353335" transform="translate(93,175)"/>
<path d="M0 0 C0.95390625 -0.01417969 1.9078125 -0.02835937 2.890625 -0.04296875 C5.89060967 0.19883329 8.00369889 1.00654421 10.75 2.1875 C13.45886941 2.35548262 13.45886941 2.35548262 15.75 2.1875 C15.75 2.8475 15.75 3.5075 15.75 4.1875 C14.43 4.1875 13.11 4.1875 11.75 4.1875 C11.42 5.1775 11.09 6.1675 10.75 7.1875 C8.6875 8.375 8.6875 8.375 6.75 9.1875 C9.39 9.1875 12.03 9.1875 14.75 9.1875 C12.12863832 11.80886168 10.78263804 11.57638188 7.125 11.6875 C0.70967767 11.62566557 -2.76084079 9.62384557 -7.25 5.1875 C-6.09009652 0.0507846 -5.25623094 0.03513523 0 0 Z " fill="#1B191B" transform="translate(71.25,75.8125)"/>
<path d="M0 0 C0.74765625 0.48210937 1.4953125 0.96421875 2.265625 1.4609375 C3.74289063 2.40839844 3.74289063 2.40839844 5.25 3.375 C6.22453125 4.00148438 7.1990625 4.62796875 8.203125 5.2734375 C10.43521615 6.65134852 12.63087422 7.88312642 15 9 C15 8.34 15 7.68 15 7 C15.66 7 16.32 7 17 7 C18.40234375 8.86328125 18.40234375 8.86328125 19.9375 11.3125 C21.75569887 14.20022762 23.48648525 16.681564 26 19 C19.4552932 19 12.56032466 17.05684618 7.4375 12.94140625 C3.6722636 8.83702171 1.57356951 5.37959232 0 0 Z " fill="#171617" transform="translate(33,82)"/>
<path d="M0 0 C-0.40992187 0.51949219 -0.81984375 1.03898438 -1.2421875 1.57421875 C-4.07636576 5.2423777 -6.59828033 8.51449706 -8 13 C-1.31717019 9.03333921 -1.31717019 9.03333921 2.75 2.75 C2.8325 2.1725 2.915 1.595 3 1 C4.98 0.67 6.96 0.34 9 0 C7.91824321 3.06497756 6.71638038 5.41708767 4.875 8.125 C2.72686611 10.84674154 2.72686611 10.84674154 3 14 C2.13375 13.79375 1.2675 13.5875 0.375 13.375 C-3.36428602 12.95952378 -5.54942141 13.60333724 -9 15 C-11 13 -11 13 -11.5 9.1875 C-11.44115512 6.70243529 -11.28491024 5.39925548 -9.83203125 3.36328125 C-6.53465221 0.40496433 -4.28782684 -0.23374865 0 0 Z " fill="#353435" transform="translate(125,176)"/>
<path d="M0 0 C-1.93479058 0.98451733 -3.86051754 1.94080786 -5.859375 2.7890625 C-10.97619619 5.05145864 -14.22462367 8.05337359 -18.04296875 12.09765625 C-23.07184679 16.98600676 -28.61410257 19.33443305 -35.53515625 19.30078125 C-39.58553024 18.80652008 -42.49616697 17.03859376 -46 15 C-46 14.01 -46 13.02 -46 12 C-44.88625 12.495 -44.88625 12.495 -43.75 13 C-37.27538499 14.726564 -30.0627479 15.3307736 -23.8125 12.5 C-19.78143028 10.16046475 -16.43872991 7.00814182 -13.078125 3.8046875 C-8.75918782 0.05403153 -5.69574453 -0.2190671 0 0 Z " fill="#2D2C2D" transform="translate(136,72)"/>
<path d="M0 0 C0.66 0 1.32 0 2 0 C3.06562458 9.20158371 3.06562458 9.20158371 0.51171875 13.51171875 C-1.23492867 15.52596846 -2.90722669 17.34756134 -5 19 C-5.66 19 -6.32 19 -7 19 C-7.33 19.99 -7.66 20.98 -8 22 C-8.66 22 -9.32 22 -10 22 C-10 22.66 -10 23.32 -10 24 C-9.34 24.33 -8.68 24.66 -8 25 C-8.99 25 -9.98 25 -11 25 C-11.33 24.34 -11.66 23.68 -12 23 C-13.32 24.32 -14.64 25.64 -16 27 C-16.66 26.67 -17.32 26.34 -18 26 C-16.948125 24.7625 -16.948125 24.7625 -15.875 23.5 C-13.25177452 20.36401939 -10.83647788 17.09668789 -8.4140625 13.8046875 C-7 12 -7 12 -4.8125 10 C-2.11325558 7.0215234 -1.26620755 3.79862266 0 0 Z " fill="#191819" transform="translate(142,79)"/>
<path d="M0 0 C6.625 -0.25 6.625 -0.25 10 2 C9.63104426 10.30150418 7.37927859 14.89868138 1.3125 20.6875 C-2.75557048 24.15033965 -6.85117594 25.74854971 -12 27 C-12.33 25.68 -12.66 24.36 -13 23 C-12.67 23.66 -12.34 24.32 -12 25 C-0.63906048 18.16141897 -0.63906048 18.16141897 6 7 C6 6.01 6 5.02 6 4 C4.02 4 2.04 4 0 4 C0 2.68 0 1.36 0 0 Z " fill="#242324" transform="translate(116,41)"/>
<path d="M0 0 C0.33 0.66 0.66 1.32 1 2 C-2.25759906 9.5713147 -6.30449006 15.67693889 -14 19 C-14 19.99 -14 20.98 -14 22 C-15.98 22.33 -17.96 22.66 -20 23 C-17.37810641 13.82337242 -13.26915067 10.13630853 -5.55859375 4.83203125 C-3.46494055 3.33291163 -1.73474749 1.88661091 0 0 Z " fill="#201F20" transform="translate(131,88)"/>
<path d="M0 0 C1.63001953 0.01353516 1.63001953 0.01353516 3.29296875 0.02734375 C4.12441406 0.03894531 4.95585938 0.05054688 5.8125 0.0625 C6.1425 0.7225 6.4725 1.3825 6.8125 2.0625 C5.52666016 2.10117188 5.52666016 2.10117188 4.21484375 2.140625 C-4.40795901 2.56836268 -9.64857691 3.16061044 -15.625 9.75 C-17.6282366 13.99686159 -18.04630272 17.44424457 -17.1875 22.0625 C-15.74735074 24.75388543 -15.74735074 24.75388543 -13.1875 26.0625 C-10.019668 26.39698259 -10.019668 26.39698259 -7.1875 26.0625 C-7.1875 26.7225 -7.1875 27.3825 -7.1875 28.0625 C-10.8534023 29.39555538 -12.15008626 29.07862661 -15.8125 27.5 C-19.32645376 25.25966267 -20.91874799 23.10664703 -22.1875 19.0625 C-22.01925879 14.26762557 -21.24153226 10.78460181 -18.1875 7.0625 C-12.16128036 2.44164874 -7.70433313 -0.08284229 0 0 Z " fill="#222122" transform="translate(61.1875,142.9375)"/>
<path d="M0 0 C0.33 0.66 0.66 1.32 1 2 C-2.62480379 8.30221568 -6.11721856 13.17268643 -13 16 C-15.73052507 16.61972668 -18.18745317 16.84932785 -21 17 C-19.17195523 12.88689926 -17.71696427 10.51794354 -14 8 C-13.34 7.01 -12.68 6.02 -12 5 C-12 5.66 -12 6.32 -12 7 C-10.1863523 6.02296079 -8.37411183 5.04330895 -6.5625 4.0625 C-5.55316406 3.51722656 -4.54382813 2.97195312 -3.50390625 2.41015625 C-1.13329507 1.22300532 -1.13329507 1.22300532 0 0 Z " fill="#161516" transform="translate(162,83)"/>
<path d="M0 0 C4.805771 0.09699721 8.99422734 1.58456063 13.4375 3.3125 C12.4475 3.8075 12.4475 3.8075 11.4375 4.3125 C11.1075 5.3025 10.7775 6.2925 10.4375 7.3125 C6.74635357 9.15807322 2.52344297 9.33174306 -1.5625 9.3125 C-4.6875 7.875 -4.6875 7.875 -6.5625 6.3125 C-5.66199108 1.8099554 -4.85864269 0.42619673 0 0 Z " fill="#EDEEED" transform="translate(32.5625,178.6875)"/>
<path d="M0 0 C0.969375 0.86625 1.93875 1.7325 2.9375 2.625 C5.73643585 5.05340463 8.60075151 7.05169242 11.75 9 C15.57347961 11.47516567 17.49229639 13.57740274 19 18 C19 18.66 19 19.32 19 20 C18.34 20 17.68 20 17 20 C17 20.66 17 21.32 17 22 C16.34 21.67 15.68 21.34 15 21 C15 20.34 15 19.68 15 19 C13.84087478 18.30452487 12.64517342 17.66977411 11.4375 17.0625 C5.89386917 13.7718956 2.81922748 8.69131547 0 3 C0 2.01 0 1.02 0 0 Z " fill="#1C1B1C" transform="translate(65,88)"/>
<path d="M0 0 C0.33 0 0.66 0 1 0 C1.12375 0.969375 1.2475 1.93875 1.375 2.9375 C1.58125 3.948125 1.7875 4.95875 2 6 C2.66 6.33 3.32 6.66 4 7 C3.71311275 14.00004889 2.49595688 18.91026866 -1 25 C-1.66 25 -2.32 25 -3 25 C-3 26.98 -3 28.96 -3 31 C-5 28 -5 28 -6.25 25.5 C-8.41161686 22.41197591 -10.57117757 21.44772503 -14 20 C-13.34 19.34 -12.68 18.68 -12 18 C-9.36 19.65 -6.72 21.3 -4 23 C-3.87625 21.453125 -3.7525 19.90625 -3.625 18.3125 C-3.24904532 14.48313306 -2.49385618 11.54790842 -1 8 C-0.54849267 5.33610676 -0.27363343 2.69072871 0 0 Z " fill="#E4E5E4" transform="translate(154,38)"/>
<path d="M0 0 C2.15502531 3.23253796 2.46856135 4.25150923 2 8 C0.8125 9.8125 0.8125 9.8125 -1 11 C-3.85480169 11.42822025 -5.34492892 11.40659584 -7.8125 9.875 C-9.57002414 7.09996189 -9.46822746 5.21070255 -9 2 C-6.14911792 -1.27323499 -4.00227856 -1.47452368 0 0 Z " fill="#A9A9A9" transform="translate(173,161)"/>
<path d="M0 0 C-0.42152344 0.38671875 -0.84304687 0.7734375 -1.27734375 1.171875 C-2.09912109 1.95304687 -2.09912109 1.95304687 -2.9375 2.75 C-3.48277344 3.26046875 -4.02804688 3.7709375 -4.58984375 4.296875 C-6.16044692 6.19378076 -6.58731286 7.59701161 -7 10 C-7.66 10 -8.32 10 -9 10 C-9.24492188 10.61359375 -9.48984375 11.2271875 -9.7421875 11.859375 C-11.25052285 14.42635567 -12.44256788 15.03857904 -15.125 16.25 C-15.84945312 16.58515625 -16.57390625 16.9203125 -17.3203125 17.265625 C-18.15175781 17.62914062 -18.15175781 17.62914062 -19 18 C-19.33 16.68 -19.66 15.36 -20 14 C-19.01 14.495 -19.01 14.495 -18 15 C-17.62488281 14.32453125 -17.24976563 13.6490625 -16.86328125 12.953125 C-7.91791347 -2.63930449 -7.91791347 -2.63930449 0 0 Z " fill="#232223" transform="translate(67,42)"/>
<path d="M0 0 C2 3 2 3 1.8671875 5.87890625 C-0.57065544 14.65294458 -9.32129453 20.30723183 -16.71484375 24.8203125 C-19 26 -19 26 -21 26 C-20.67 24.68 -20.34 23.36 -20 22 C-20 22.66 -20 23.32 -20 24 C-9.0366736 17.87540448 -9.0366736 17.87540448 -2.19921875 7.78125 C-1.70611352 5.87591823 -1.34008772 3.9385 -1 2 C-2.258125 2.12375 -3.51625 2.2475 -4.8125 2.375 C-5.52019531 2.44460937 -6.22789063 2.51421875 -6.95703125 2.5859375 C-9.29988142 2.92665391 -9.29988142 2.92665391 -12 5 C-12 4.01 -12 3.02 -12 2 C-7.59328963 -0.62304189 -4.97897747 -1.5842201 0 0 Z " fill="#444444" transform="translate(82,145)"/>
<path d="M0 0 C2.81375173 5.62750345 3.84979498 9.61221524 3 16 C1.22865778 20.03513228 -0.8937419 22.43457919 -4.8125 24.4375 C-5.534375 24.623125 -6.25625 24.80875 -7 25 C-7 25.66 -7 26.32 -7 27 C-8.65 27.33 -10.3 27.66 -12 28 C-12 27.34 -12 26.68 -12 26 C-10.35546875 24.4140625 -10.35546875 24.4140625 -8.1875 22.625 C-2.91751557 18.33519251 -2.91751557 18.33519251 -0.48828125 12.203125 C-0.43027344 11.22859375 -0.37226563 10.2540625 -0.3125 9.25 C-0.21388672 7.77273437 -0.21388672 7.77273437 -0.11328125 6.265625 C-0.07589844 5.51796875 -0.03851563 4.7703125 0 4 C-0.66 4 -1.32 4 -2 4 C-2 3.34 -2 2.68 -2 2 C-1.34 2 -0.68 2 0 2 C0 1.34 0 0.68 0 0 Z " fill="#DADBDA" transform="translate(144,75)"/>
<path d="M0 0 C0.99 0.66 1.98 1.32 3 2 C2.34 2 1.68 2 1 2 C1.24031724 8.75291447 1.49941245 13.64794994 6 19 C6.52722656 19.63164063 7.05445313 20.26328125 7.59765625 20.9140625 C9.0435088 22.62994425 10.5105936 24.32193545 12 26 C6.17612053 25.48612828 2.80944796 22.11102261 -0.875 17.8125 C-2.95149445 12.62126388 -2.68958389 7.15494965 -1 1.875 C-0.67 1.25625 -0.34 0.6375 0 0 Z " fill="#DEDEDE" transform="translate(52,76)"/>
<path d="M0 0 C0.99 0.33 1.98 0.66 3 1 C0.375 5.875 0.375 5.875 -3 7 C-3.33 7.99 -3.66 8.98 -4 10 C-3.34 10.66 -2.68 11.32 -2 12 C-2.763125 12.309375 -3.52625 12.61875 -4.3125 12.9375 C-8.16362119 15.89301161 -8.81925263 19.42100409 -10 24 C-11.65 24.33 -13.3 24.66 -15 25 C-14.46104484 20.65711497 -12.95867489 18.19758786 -10.3125 14.75 C-6.69088943 9.94076218 -3.28694924 5.04247894 0 0 Z " fill="#BFC1BF" transform="translate(114,163)"/>
<path d="M0 0 C1.32 0.33 2.64 0.66 4 1 C3.13805265 4.87876309 1.77597137 8.44805726 0 12 C-2.375 13.1875 -2.375 13.1875 -5 14 C-5.99 13.67 -6.98 13.34 -8 13 C-6.00503547 7.75009334 -3.76315833 4.16998625 0 0 Z " fill="#D3D4D3" transform="translate(82,176)"/>
<path d="M0 0 C4.52671196 0.53255435 7.4200555 2.21559872 11 5 C12.375 7.25 12.375 7.25 13 9 C13.33 8.01 13.66 7.02 14 6 C14.66 6 15.32 6 16 6 C16.33 5.01 16.66 4.02 17 3 C17 4.32 17 5.64 17 7 C16.34 7 15.68 7 15 7 C15 8.98 15 10.96 15 13 C13.68 13.33 12.36 13.66 11 14 C9.16369327 11.85664848 7.33085819 9.71049702 5.5 7.5625 C4.71302734 6.64500977 4.71302734 6.64500977 3.91015625 5.70898438 C0 1.11328125 0 1.11328125 0 0 Z " fill="#232323" transform="translate(137,57)"/>
<path d="M0 0 C0.33 0 0.66 0 1 0 C1.1953125 1.98567708 1.390625 3.97135417 1.5859375 5.95703125 C1.92665391 8.29988142 1.92665391 8.29988142 4 11 C4.265625 13.15625 4.265625 13.15625 4.25 15.5 C4.25515625 16.2734375 4.2603125 17.046875 4.265625 17.84375 C4 20 4 20 2 23 C-1.96313504 16.35216058 -2.74378181 10.68654573 -3 3 C-2.34 3 -1.68 3 -1 3 C-0.67 2.01 -0.34 1.02 0 0 Z " fill="#E3E4E3" transform="translate(42,40)"/>
<path d="M0 0 C2.875 -0.125 2.875 -0.125 6 0 C6.66 0.66 7.32 1.32 8 2 C7.34 2 6.68 2 6 2 C5.91621094 2.74636719 5.83242187 3.49273437 5.74609375 4.26171875 C4.84361495 7.5739577 3.67725729 8.64220417 1.0625 10.8125 C0.35222656 11.41707031 -0.35804687 12.02164063 -1.08984375 12.64453125 C-3 14 -3 14 -5 14 C-4.67566492 8.64847115 -1.50295176 5.71719957 2 2 C1.34 1.34 0.68 0.68 0 0 Z " fill="#DDDEDD" transform="translate(122,175)"/>
<path d="M0 0 C1.32 0.33 2.64 0.66 4 1 C3.6875 2.9375 3.6875 2.9375 3 5 C2.01 5.33 1.02 5.66 0 6 C-1.34498508 7.75906644 -1.34498508 7.75906644 -2.5 9.875 C-4.09330804 12.64286204 -5.64952029 14.82717282 -8 17 C-8.77734375 14.3671875 -8.77734375 14.3671875 -9 11 C-7.12890625 8.0078125 -7.12890625 8.0078125 -4.5625 5.125 C-3.71816406 4.15820312 -2.87382813 3.19140625 -2.00390625 2.1953125 C-1.34261719 1.47085938 -0.68132812 0.74640625 0 0 Z " fill="#272527" transform="translate(113,159)"/>
<path d="M0 0 C0.99 0 1.98 0 3 0 C3 1.32 3 2.64 3 4 C3.66 4.33 4.32 4.66 5 5 C4.071875 5.3403125 4.071875 5.3403125 3.125 5.6875 C0.37585439 7.3855017 0.00115914 8.99652258 -1 12 C-2 13 -2 13 -4.5625 13.0625 C-5.366875 13.041875 -6.17125 13.02125 -7 13 C-5.62262427 8.98265411 -3.66973875 6.27258299 -1 3 C-0.67 2.01 -0.34 1.02 0 0 Z " fill="#242324" transform="translate(144,177)"/>
<path d="M0 0 C2.4429441 0.84205688 4.66283767 1.87816208 7 3 C5.33557103 5.02185443 4.47015897 5.92078843 1.84375 6.36328125 C1.0703125 6.34652344 0.296875 6.32976562 -0.5 6.3125 C-1.2734375 6.30863281 -2.046875 6.30476563 -2.84375 6.30078125 C-5 6 -5 6 -8 4 C-8 3.01 -8 2.02 -8 1 C-5.15697309 -0.42151345 -3.16974528 -0.23922606 0 0 Z " fill="#DCDEDC" transform="translate(76,78)"/>
<path d="M0 0 C0.99 0.33 1.98 0.66 3 1 C2.34 1 1.68 1 1 1 C1 1.66 1 2.32 1 3 C-0.96147874 4.38938077 -2.96166576 5.7260411 -5 7 C-5.66 6.67 -6.32 6.34 -7 6 C-7 4.68 -7 3.36 -7 2 C-7.99 2 -8.98 2 -10 2 C-10.33 2.99 -10.66 3.98 -11 5 C-11.66 5 -12.32 5 -13 5 C-15.33164917 7.22812035 -17.50749606 9.57908023 -19.7109375 11.93359375 C-21.94252698 13.94811736 -23.07279368 14.63242843 -26 15 C-26 13.68 -26 12.36 -26 11 C-25.34 11.33 -24.68 11.66 -24 12 C-22.74839762 10.91851833 -21.49879619 9.83472078 -20.25 8.75 C-19.51523438 8.11449219 -18.78046875 7.47898438 -18.0234375 6.82421875 C-15.89808256 4.98137289 -15.89808256 4.98137289 -13.875 2.5625 C-11.25664195 0.38053495 -9.30050998 0.69995364 -6 1 C-5.67 1.99 -5.34 2.98 -5 4 C-4.236875 3.319375 -3.47375 2.63875 -2.6875 1.9375 C-1.800625 1.298125 -0.91375 0.65875 0 0 Z " fill="#727172" transform="translate(154,175)"/>
<path d="M0 0 C2.29296875 -0.32421875 2.29296875 -0.32421875 5 0 C6.73828125 2.23046875 6.73828125 2.23046875 8.3125 5.1875 C11.53973311 10.70365176 14.34483428 13.12281042 20 16 C19.67 16.66 19.34 17.32 19 18 C10.80753256 14.94790429 7.16789419 10.50220954 3 3 C1.39827526 1.14140661 1.39827526 1.14140661 0 0 Z " fill="#CACBCA" transform="translate(61,91)"/>
<path d="M0 0 C-0.61488281 0.76183594 -0.61488281 0.76183594 -1.2421875 1.5390625 C-4.39286344 5.5640887 -6.73796061 8.95184246 -8 14 C-8.99 13.67 -9.98 13.34 -11 13 C-11.71105791 6.00793057 -11.71105791 6.00793057 -9.83984375 3.35546875 C-6.52736092 0.41574614 -4.29128232 -0.23393703 0 0 Z " fill="#181718" transform="translate(125,176)"/>
<path d="M0 0 C0.33 0.66 0.66 1.32 1 2 C1.66 2.33 2.32 2.66 3 3 C-6.12614013 16.90521352 -6.12614013 16.90521352 -12.875 18.8125 C-13.57625 18.874375 -14.2775 18.93625 -15 19 C-14.375 17.1875 -14.375 17.1875 -13 15 C-11.63875 14.443125 -11.63875 14.443125 -10.25 13.875 C-4.9234694 10.80200158 -2.69003796 5.38007592 0 0 Z " fill="#CDCFCD" transform="translate(131,90)"/>
<path d="M0 0 C0.33 0.66 0.66 1.32 1 2 C-1.31160495 4.31160495 -3.63033477 5.56178763 -6.5 7.125 C-7.4796875 7.66382812 -8.459375 8.20265625 -9.46875 8.7578125 C-12 10 -12 10 -14 10 C-13.62754156 7.43113225 -13.32153763 6.27871603 -11.328125 4.55078125 C-4.37997192 0.41062237 -4.37997192 0.41062237 0 0 Z " fill="#DDDEDD" transform="translate(164,80)"/>
<path d="M0 0 C4.805771 0.09699721 8.99422734 1.58456063 13.4375 3.3125 C12.4475 3.9725 11.4575 4.6325 10.4375 5.3125 C7.9375 4.3125 7.9375 4.3125 5.4375 3.3125 C2.74441379 3.13229349 0.14124614 3.22084759 -2.5625 3.3125 C-2.5625 4.3025 -2.5625 5.2925 -2.5625 6.3125 C-1.9025 6.6425 -1.2425 6.9725 -0.5625 7.3125 C-0.8925 7.9725 -1.2225 8.6325 -1.5625 9.3125 C-3.2125 8.3225 -4.8625 7.3325 -6.5625 6.3125 C-5.66199108 1.8099554 -4.85864269 0.42619673 0 0 Z " fill="#949494" transform="translate(32.5625,178.6875)"/>
<path d="M0 0 C-0.6493062 3.50625349 -2.17925367 5.96542279 -4 9 C-4.69579454 11.19130534 -4.69579454 11.19130534 -5 13 C-5.99 13 -6.98 13 -8 13 C-8.875 11 -8.875 11 -9 8 C-4.59334566 0 -4.59334566 0 0 0 Z " fill="#171617" transform="translate(91,176)"/>
<path d="M0 0 C6.26443305 3.19363254 10.09887269 6.28416026 13.375 12.6875 C14 15 14 15 13 18 C12.69707031 17.48050781 12.39414063 16.96101563 12.08203125 16.42578125 C8.77620135 10.92284594 5.413281 6.608854 0 3 C0 2.01 0 1.02 0 0 Z " fill="#CDCECD" transform="translate(135,40)"/>
<path d="M0 0 C0.66 0.33 1.32 0.66 2 1 C1.29875 1.639375 0.5975 2.27875 -0.125 2.9375 C-3.13786619 5.92468835 -5.31300612 9.33897727 -7.5703125 12.9140625 C-8.90148309 14.85626222 -10.27976967 16.4019162 -12 18 C-11.34448894 11.11713388 -8.37839536 7.0474624 -3.25 2.625 C-2.17281969 1.7424363 -1.0915857 0.86468305 0 0 Z " fill="#D5D5D5" transform="translate(60,40)"/>
<path d="M0 0 C-0.66 0.66 -1.32 1.32 -2 2 C2.92127034 2.16682272 6.50343896 2.24828052 11 0 C10 3 10 3 8.390625 4.2109375 C5.04051818 5.31669171 2.24789967 4.9488796 -1.25 4.625 C-2.51328125 4.51414062 -3.7765625 4.40328125 -5.078125 4.2890625 C-6.04234375 4.19367188 -7.0065625 4.09828125 -8 4 C-8 3.34 -8 2.68 -8 2 C-8.66 1.67 -9.32 1.34 -10 1 C-6.1496895 -1.56687367 -4.41430237 -0.83288724 0 0 Z " fill="#6D6D6D" transform="translate(147,99)"/>
<path d="M0 0 C0.99 0.33 1.98 0.66 3 1 C1.99453315 3.58160408 1.31537358 4.8007222 -1.05859375 6.30078125 C-1.84363281 6.63464844 -2.62867187 6.96851562 -3.4375 7.3125 C-4.21996094 7.65925781 -5.00242187 8.00601563 -5.80859375 8.36328125 C-8 9 -8 9 -11 8 C-10.67 7.01 -10.34 6.02 -10 5 C-10 5.66 -10 6.32 -10 7 C-9.31292969 6.48308594 -8.62585938 5.96617188 -7.91796875 5.43359375 C-7.01691406 4.77488281 -6.11585937 4.11617187 -5.1875 3.4375 C-3.84751953 2.44556641 -3.84751953 2.44556641 -2.48046875 1.43359375 C-1.66191406 0.96050781 -0.84335938 0.48742188 0 0 Z " fill="#272627" transform="translate(114,59)"/>
<path d="M0 0 C-1.94794074 0.98908743 -3.89087779 1.95252621 -5.89453125 2.82421875 C-11.34120443 5.27577633 -15.026121 8.57905961 -19 13 C-19.99 12.34 -20.98 11.68 -22 11 C-19.87657342 9.35210134 -17.7513551 7.70661212 -15.625 6.0625 C-15.02171875 5.59392578 -14.4184375 5.12535156 -13.796875 4.64257812 C-8.66675732 0.68098725 -6.50454228 -0.12045449 0 0 Z " fill="#464546" transform="translate(136,72)"/>
<path d="M0 0 C0.99 0.33 1.98 0.66 3 1 C3 1.99 3 2.98 3 4 C3.99 3.67 4.98 3.34 6 3 C6 4.98 6 6.96 6 9 C5.34 8.34 4.68 7.68 4 7 C0.91652174 6.83318891 0.91652174 6.83318891 -2 7 C-2.125 4.625 -2.125 4.625 -2 2 C-1.34 1.34 -0.68 0.68 0 0 Z " fill="#9C9D9C" transform="translate(108,179)"/>
<path d="M0 0 C0.33 0.66 0.66 1.32 1 2 C-0.30324219 2.05607422 -0.30324219 2.05607422 -1.6328125 2.11328125 C-10.28042899 2.52448963 -10.28042899 2.52448963 -18 6 C-18.66 5.34 -19.32 4.68 -20 4 C-13.20780865 -0.17981006 -7.88602342 -0.4731614 0 0 Z " fill="#828282" transform="translate(67,143)"/>
<path d="M0 0 C0 0.99 0 1.98 0 3 C0.3062434 4.33981486 0.63451555 5.67511887 1 7 C0.443125 7.103125 -0.11375 7.20625 -0.6875 7.3125 C-3.43541044 8.12944635 -5.55594668 9.52070457 -8 11 C-8.66 11 -9.32 11 -10 11 C-8.55218207 7.55571735 -6.72305391 5.63869038 -3.875 3.25 C-3.15054688 2.63640625 -2.42609375 2.0228125 -1.6796875 1.390625 C-0.84824219 0.70226562 -0.84824219 0.70226562 0 0 Z " fill="#D9DBD9" transform="translate(70,23)"/>
<path d="M0 0 C0.99 0.99 1.98 1.98 3 3 C3.99 3 4.98 3 6 3 C5.690625 4.010625 5.38125 5.02125 5.0625 6.0625 C4.02352081 9.6731369 3.45688819 13.26874647 3 17 C2.34 17 1.68 17 1 17 C0.67 11.39 0.34 5.78 0 0 Z " fill="#B4B4B4" transform="translate(140,22)"/>
<path d="M0 0 C-0.33 1.65 -0.66 3.3 -1 5 C-2.32 5.33 -3.64 5.66 -5 6 C-5 7.98 -5 9.96 -5 12 C-7.8125 13.5625 -7.8125 13.5625 -11 15 C-11.99 14.67 -12.98 14.34 -14 14 C-13.05125 13.67 -12.1025 13.34 -11.125 13 C-7.94367374 11.39432911 -7.94367374 11.39432911 -7.26171875 9.125 C-6.96304892 7.71216186 -6.68295318 6.29526528 -6.421875 4.875 C-5.53430332 0.93023698 -3.87170195 0 0 0 Z " fill="#838283" transform="translate(112,175)"/>
<path d="M0 0 C1.00109515 3.31070838 1.10356134 6.30084769 1.0625 9.75 C1.05347656 10.73484375 1.04445313 11.7196875 1.03515625 12.734375 C1.02355469 13.48203125 1.01195312 14.2296875 1 15 C0.01 15.495 0.01 15.495 -1 16 C-1.13277344 15.39671875 -1.26554687 14.7934375 -1.40234375 14.171875 C-1.57894531 13.37265625 -1.75554688 12.5734375 -1.9375 11.75 C-2.11152344 10.96109375 -2.28554688 10.1721875 -2.46484375 9.359375 C-2.947556 7.23121297 -3.46163178 5.11467158 -4 3 C-2.68 2.67 -1.36 2.34 0 2 C0 1.34 0 0.68 0 0 Z " fill="#B9BAB9" transform="translate(55,23)"/>
<path d="M0 0 C0.66 0.33 1.32 0.66 2 1 C1.69128878 2.79232337 1.37790936 4.58384321 1.0625 6.375 C0.88847656 7.37273438 0.71445313 8.37046875 0.53515625 9.3984375 C0 12 0 12 -1 14 C-1.66 14 -2.32 14 -3 14 C-2.88655624 11.8535247 -2.75893655 9.70779408 -2.625 7.5625 C-2.52058594 5.77005859 -2.52058594 5.77005859 -2.4140625 3.94140625 C-2.27742187 2.97074219 -2.14078125 2.00007813 -2 1 C-1.34 0.67 -0.68 0.34 0 0 Z " fill="#DADBDA" transform="translate(149,31)"/>
<path d="M0 0 C0.66 0 1.32 0 2 0 C0.19078643 4.91072256 -1.9744128 7.04553208 -6.125 10.125 C-6.84945312 10.66382813 -7.57390625 11.20265625 -8.3203125 11.7578125 C-8.87460937 12.16773438 -9.42890625 12.57765625 -10 13 C-8.56501627 9.79111679 -6.78256013 7.42193016 -4.4375 4.8125 C-3.81746094 4.11769531 -3.19742188 3.42289063 -2.55859375 2.70703125 C-1.72141231 1.79011824 -0.8779528 0.8779528 0 0 Z " fill="#282628" transform="translate(68,149)"/>
<path d="M0 0 C0.54269531 0.28875 1.08539063 0.5775 1.64453125 0.875 C2.71767578 1.431875 2.71767578 1.431875 3.8125 2 C4.52019531 2.37125 5.22789062 2.7425 5.95703125 3.125 C8.08920729 4.19685358 8.08920729 4.19685358 11 4 C11.33 4.99 11.66 5.98 12 7 C11.34 7 10.68 7 10 7 C10 8.98 10 10.96 10 13 C8 10 8 10 6.75 7.5 C4.58838314 4.41197591 2.42882243 3.44772503 -1 2 C-0.67 1.34 -0.34 0.68 0 0 Z " fill="#AEAFAE" transform="translate(141,56)"/>
<path d="M0 0 C1.1446875 1.175625 1.1446875 1.175625 2.3125 2.375 C4.90891805 5.07257717 4.90891805 5.07257717 8 7 C8.6875 10.125 8.6875 10.125 9 13 C8.34 13 7.68 13 7 13 C5.99088542 11.20963542 4.98177083 9.41927083 3.97265625 7.62890625 C3.1027487 6.02121854 3.1027487 6.02121854 2 5 C1.34 5.66 0.68 6.32 0 7 C-1.125 2.25 -1.125 2.25 0 0 Z " fill="#C0C1C0" transform="translate(142,64)"/>
<path d="M0 0 C-2 2 -2 2 -4.8125 2.125 C-8.56666648 3.1555555 -8.87191152 3.85263126 -10.8125 7.0625 C-11.21082031 7.79597656 -11.60914063 8.52945313 -12.01953125 9.28515625 C-12.34308594 9.85105469 -12.66664062 10.41695312 -13 11 C-13.33 11 -13.66 11 -14 11 C-13.93405693 7.63690325 -13.87488417 4.99814134 -11.5859375 2.38671875 C-7.57446846 -0.75000263 -5.06195689 -1.60501072 0 0 Z " fill="#B5B6B5" transform="translate(60,57)"/>
<path d="M0 0 C0.33 0.66 0.66 1.32 1 2 C0.67 2.66 0.34 3.32 0 4 C-0.07092842 6.2072923 -0.08415025 8.41667452 -0.0625 10.625 C-0.04896484 12.40777344 -0.04896484 12.40777344 -0.03515625 14.2265625 C-0.02355469 15.14179687 -0.01195312 16.05703125 0 17 C-0.66 16.67 -1.32 16.34 -2 16 C-2.6328125 13.05859375 -2.6328125 13.05859375 -3.125 9.4375 C-3.29257812 8.23996094 -3.46015625 7.04242188 -3.6328125 5.80859375 C-3.75398438 4.88175781 -3.87515625 3.95492188 -4 3 C-2.68 2.01 -1.36 1.02 0 0 Z " fill="#DCDCDC" transform="translate(50,28)"/>
<path d="M0 0 C-1.1858237 3.37503669 -2.27573689 5.64722731 -5 8 C-5.66 7.67 -6.32 7.34 -7 7 C-6.625 4.0625 -6.625 4.0625 -6 1 C-4 0 -4 0 0 0 Z " fill="#232223" transform="translate(134,176)"/>
<path d="M0 0 C0.53625 0.45375 1.0725 0.9075 1.625 1.375 C0.965 2.035 0.305 2.695 -0.375 3.375 C-0.88289063 3.09785156 -1.39078125 2.82070312 -1.9140625 2.53515625 C-6.0827298 0.3415317 -9.61631553 -1.14913155 -14.375 -1.625 C-14.375 -1.955 -14.375 -2.285 -14.375 -2.625 C-8.64966018 -3.98817615 -4.87424958 -3.33501287 0 0 Z " fill="#323132" transform="translate(93.375,114.625)"/>
<path d="M0 0 C3.63 0.33 7.26 0.66 11 1 C11 1.33 11 1.66 11 2 C13.64 2 16.28 2 19 2 C16.33515635 4.66484365 14.90120172 4.32920836 11.1875 4.375 C7.02271333 4.32500256 5.36381117 4.22388379 1.75 2 C1.1725 1.34 0.595 0.68 0 0 Z " fill="#3A393A" transform="translate(67,83)"/>
<path d="M0 0 C0.99 0.495 0.99 0.495 2 1 C2.6328125 3.06640625 2.6328125 3.06640625 3.125 5.5625 C3.29257812 6.38878906 3.46015625 7.21507813 3.6328125 8.06640625 C3.75398438 8.70449219 3.87515625 9.34257813 4 10 C3.34 10 2.68 10 2 10 C1.67 11.32 1.34 12.64 1 14 C-0.04976964 10.85069107 -0.10131595 8.61185544 -0.0625 5.3125 C-0.05347656 4.31863281 -0.04445313 3.32476562 -0.03515625 2.30078125 C-0.02355469 1.54152344 -0.01195313 0.78226563 0 0 Z " fill="#323232" transform="translate(32,61)"/>
<path d="M0 0 C0.33 0.99 0.66 1.98 1 3 C0.2884375 3.928125 0.2884375 3.928125 -0.4375 4.875 C-2.3328954 7.45273775 -2.26043988 8.87472142 -2 12 C-2.99 12 -3.98 12 -5 12 C-5.35338623 9.03155565 -5.5417682 6.84401782 -3.88671875 4.265625 C-2.64496832 2.79651181 -1.32662082 1.39295186 0 0 Z " fill="#0F0E0F" transform="translate(102,177)"/>
<path d="M0 0 C4.29 0 8.58 0 13 0 C12.67 0.66 12.34 1.32 12 2 C10.0390625 2.51953125 10.0390625 2.51953125 7.625 2.8125 C6.43777344 2.97685547 6.43777344 2.97685547 5.2265625 3.14453125 C3 3 3 3 0 0 Z " fill="#D6D7D6" transform="translate(127,108)"/>
<path d="M0 0 C0.66 0.33 1.32 0.66 2 1 C0.75596862 4.73209414 -1.17243898 6.30708475 -4 9 C-4.8971875 9.8971875 -4.8971875 9.8971875 -5.8125 10.8125 C-6.204375 11.204375 -6.59625 11.59625 -7 12 C-7.3125 9.75 -7.3125 9.75 -7 7 C-4.625 4.875 -4.625 4.875 -2 3 C-1.34 2.01 -0.68 1.02 0 0 Z " fill="#C1C2C1" transform="translate(53,65)"/>
<path d="M0 0 C0.66 0.33 1.32 0.66 2 1 C-1.96 4.96 -5.92 8.92 -10 13 C-10 8.41771462 -7.08388033 6.1816619 -4 3 C-1.625 1.0625 -1.625 1.0625 0 0 Z " fill="#323132" transform="translate(106,46)"/>
<path d="M0 0 C-0.33 0.66 -0.66 1.32 -1 2 C-2.99281757 2.25713775 -4.98829861 2.50836152 -6.9921875 2.65625 C-9.30982249 2.91308355 -9.30982249 2.91308355 -12 5 C-12 4.01 -12 3.02 -12 2 C-7.52828892 -0.66173278 -5.06604612 -1.3268216 0 0 Z " fill="#6C6C6C" transform="translate(82,145)"/>
<path d="M0 0 C3.96 0 7.92 0 12 0 C12 0.66 12 1.32 12 2 C10.56589632 2.24954005 9.12739928 2.47392642 7.6875 2.6875 C6.88699219 2.81511719 6.08648437 2.94273438 5.26171875 3.07421875 C3 3 3 3 0 0 Z " fill="#D8D8D8" transform="translate(57,108)"/>
<path d="M0 0 C3.91211733 1.15585285 6.8745041 2.35534962 10 5 C9.67 5.66 9.34 6.32 9 7 C1.42857143 4 1.42857143 4 -1 1 C-0.67 0.67 -0.34 0.34 0 0 Z " fill="#C4C5C4" transform="translate(71,102)"/>
<path d="M0 0 C0.88429688 -0.01417969 1.76859375 -0.02835938 2.6796875 -0.04296875 C5.125 0.1875 5.125 0.1875 8.125 2.1875 C3.835 2.8475 -0.455 3.5075 -4.875 4.1875 C-5.205 3.1975 -5.535 2.2075 -5.875 1.1875 C-4.21846314 -0.46903686 -2.26849204 0.01643835 0 0 Z " fill="#272727" transform="translate(95.875,39.8125)"/>
<path d="M0 0 C6.57142857 4 6.57142857 4 8 8 C4.22454612 6.90931332 1.52956528 6.0916909 -1 3 C-0.67 2.01 -0.34 1.02 0 0 Z " fill="#C7C9C7" transform="translate(130,27)"/>
<path d="M0 0 C0.66 0.99 1.32 1.98 2 3 C1.67 3.99 1.34 4.98 1 6 C-0.65 6.33 -2.3 6.66 -4 7 C-3.6875 4.625 -3.6875 4.625 -3 2 C-2.01 1.34 -1.02 0.68 0 0 Z " fill="#D8D9D8" transform="translate(103,181)"/>
<path d="M0 0 C0.33 0.66 0.66 1.32 1 2 C1.66 2.33 2.32 2.66 3 3 C1.35 3.66 -0.3 4.32 -2 5 C-2 5.66 -2 6.32 -2 7 C-3.65 7.33 -5.3 7.66 -7 8 C-7 7.34 -7 6.68 -7 6 C-5.46875 4.4921875 -5.46875 4.4921875 -3.5 2.875 C-2.8503125 2.33617188 -2.200625 1.79734375 -1.53125 1.2421875 C-1.0259375 0.83226563 -0.520625 0.42234375 0 0 Z " fill="#BBBCBB" transform="translate(139,95)"/>
<path d="M0 0 C0.66 0 1.32 0 2 0 C2.05422947 1.4370809 2.09289723 2.87475462 2.125 4.3125 C2.14820313 5.11300781 2.17140625 5.91351563 2.1953125 6.73828125 C2 9 2 9 0 12 C-0.33 11.01 -0.66 10.02 -1 9 C-1.99 9.495 -1.99 9.495 -3 10 C-2.01 6.7 -1.02 3.4 0 0 Z " fill="#2E2E2E" transform="translate(163,62)"/>
<path d="M0 0 C0.66 0 1.32 0 2 0 C5 3.46153846 5 3.46153846 5 6 C4.01 6 3.02 6 2 6 C1.67 6.66 1.34 7.32 1 8 C1.66 8.33 2.32 8.66 3 9 C1.0625 8.625 1.0625 8.625 -1 8 C-1.33 7.34 -1.66 6.68 -2 6 C-1.34 6 -0.68 6 0 6 C0 4.02 0 2.04 0 0 Z " fill="#6D6D6D" transform="translate(167,163)"/>
<path d="M0 0 C0.99 0.33 1.98 0.66 3 1 C1.12050295 4.57104439 -0.17053157 6.54744301 -4 8 C-3.40072174 4.64404172 -2.15377564 2.62198774 0 0 Z " fill="#6F6F6F" transform="translate(114,163)"/>
<path d="M0 0 C2.31 1.98 4.62 3.96 7 6 C5.68 6.33 4.36 6.66 3 7 C0.25 4.5625 0.25 4.5625 -2 2 C-1.34 2 -0.68 2 0 2 C0 1.34 0 0.68 0 0 Z " fill="#C4C5C4" transform="translate(57,95)"/>
<path d="M0 0 C2.19050021 0.09017996 4.378466 0.24666208 6.5625 0.4375 C7.76003906 0.53933594 8.95757812 0.64117187 10.19140625 0.74609375 C11.11824219 0.82988281 12.04507813 0.91367188 13 1 C12.01 2.485 12.01 2.485 11 4 C11 3.34 11 2.68 11 2 C7.9254644 2.7763932 7.9254644 2.7763932 6 5 C5.38125 4.2884375 5.38125 4.2884375 4.75 3.5625 C2.817815 1.83733482 1.51807725 1.43415125 -1 1 C-0.67 0.67 -0.34 0.34 0 0 Z " fill="#737273" transform="translate(80,174)"/>
<path d="M0 0 C0.76570313 0.49113281 0.76570313 0.49113281 1.546875 0.9921875 C4.86772037 2.35648384 7.67372568 2.1912273 11.25 2.125 C13.14492188 2.09792969 13.14492188 2.09792969 15.078125 2.0703125 C16.04234375 2.04710938 17.0065625 2.02390625 18 2 C18 2.66 18 3.32 18 4 C15.75215576 4.24942657 13.50152494 4.47383488 11.25 4.6875 C9.99703125 4.81511719 8.7440625 4.94273438 7.453125 5.07421875 C4 5 4 5 1.546875 3.64453125 C0 2 0 2 0 0 Z " fill="#6D6D6D" transform="translate(39,99)"/>
<path d="M0 0 C0.99 0.33 1.98 0.66 3 1 C2.34 1 1.68 1 1 1 C1 1.66 1 2.32 1 3 C-0.96147874 4.38938077 -2.96166576 5.7260411 -5 7 C-5.66 6.67 -6.32 6.34 -7 6 C-7 4.35 -7 2.7 -7 1 C-6.01 2.485 -6.01 2.485 -5 4 C-4.236875 3.319375 -3.47375 2.63875 -2.6875 1.9375 C-1.800625 1.298125 -0.91375 0.65875 0 0 Z " fill="#989998" transform="translate(154,175)"/>
<path d="M0 0 C0.8125 1.6875 0.8125 1.6875 1 4 C-1.4375 6.75 -1.4375 6.75 -4 9 C-4.8125 7.3125 -4.8125 7.3125 -5 5 C-2.5625 2.25 -2.5625 2.25 0 0 Z " fill="#0C0A0C" transform="translate(109,167)"/>
<path d="M0 0 C4.62 0 9.24 0 14 0 C14.33 0.99 14.66 1.98 15 3 C14.01 3.66 13.02 4.32 12 5 C11.01 4.34 10.02 3.68 9 3 C9.99 2.67 10.98 2.34 12 2 C8.04 1.67 4.08 1.34 0 1 C0 0.67 0 0.34 0 0 Z " fill="#585758" transform="translate(127,107)"/>
<path d="M0 0 C0.33 0 0.66 0 1 0 C1 2.97 1 5.94 1 9 C-2.465 7.02 -2.465 7.02 -6 5 C-5.01 4.34 -4.02 3.68 -3 3 C-2.67 3.33 -2.34 3.66 -2 4 C-1.34 2.68 -0.68 1.36 0 0 Z " fill="#303030" transform="translate(150,53)"/>
<path d="M0 0 C2.31 0 4.62 0 7 0 C7.33 0.66 7.66 1.32 8 2 C6 4 6 4 2.875 4.125 C1.451875 4.063125 1.451875 4.063125 0 4 C0 2.68 0 1.36 0 0 Z " fill="#353435" transform="translate(116,41)"/>
<path d="M0 0 C0.99 0.33 1.98 0.66 3 1 C2.67 2.32 2.34 3.64 2 5 C2.66 5.33 3.32 5.66 4 6 C3.67 6.66 3.34 7.32 3 8 C1.35 7.01 -0.3 6.02 -2 5 C-1.125 1.125 -1.125 1.125 0 0 Z " fill="#787878" transform="translate(28,180)"/>
<path d="M0 0 C0.66 0.33 1.32 0.66 2 1 C1.030625 1.86625 0.06125 2.7325 -0.9375 3.625 C-3.91504038 6.56751049 -4.79692286 8.73538008 -5 13 C-5.33 13 -5.66 13 -6 13 C-6.7230444 5.89006342 -6.7230444 5.89006342 -4.6640625 3.35546875 C-3 2 -3 2 0 0 Z " fill="#302E30" transform="translate(120,176)"/>
<path d="M0 0 C1.051875 0.99 1.051875 0.99 2.125 2 C5.43460229 4.30233203 7.06225823 4.36630156 11 4 C11 4.66 11 5.32 11 6 C8.39517051 6.94721072 6.69325299 7.30222393 4.109375 6.17578125 C2.37417127 5.17063275 0.68359577 4.0893855 -1 3 C-0.67 2.01 -0.34 1.02 0 0 Z " fill="#616261" transform="translate(43,165)"/>
<path d="M0 0 C0.66 0.33 1.32 0.66 2 1 C2 1.66 2 2.32 2 3 C-0.75 4.625 -0.75 4.625 -4 6 C-6.203125 5.0859375 -6.203125 5.0859375 -8 4 C-6.71349294 3.30289269 -5.42059335 2.61757124 -4.125 1.9375 C-3.40570313 1.55464844 -2.68640625 1.17179687 -1.9453125 0.77734375 C-1.30335937 0.52082031 -0.66140625 0.26429687 0 0 Z " fill="#393939" transform="translate(109,111)"/>
<path d="M0 0 C1.28132813 0.00902344 2.56265625 0.01804687 3.8828125 0.02734375 C4.87023437 0.03894531 5.85765625 0.05054687 6.875 0.0625 C6.545 0.7225 6.215 1.3825 5.875 2.0625 C4.71871094 2.01029297 4.71871094 2.01029297 3.5390625 1.95703125 C2.03472656 1.91642578 2.03472656 1.91642578 0.5 1.875 C-0.49773438 1.84019531 -1.49546875 1.80539063 -2.5234375 1.76953125 C-3.81121094 1.91455078 -3.81121094 1.91455078 -5.125 2.0625 C-6.115 3.5475 -6.115 3.5475 -7.125 5.0625 C-7.785 3.7425 -8.445 2.4225 -9.125 1.0625 C-6.12186252 -0.43906874 -3.33432478 -0.03031204 0 0 Z " fill="#626362" transform="translate(63.125,106.9375)"/>
<path d="M0 0 C0.66 0 1.32 0 2 0 C2.66 2.97 3.32 5.94 4 9 C3.34 8.67 2.68 8.34 2 8 C1.34 8.99 0.68 9.98 0 11 C0 7.37 0 3.74 0 0 Z " fill="#4A4A4A" transform="translate(53,78)"/>
<path d="M0 0 C1.11375 0.598125 2.2275 1.19625 3.375 1.8125 C4.00148437 2.14894531 4.62796875 2.48539063 5.2734375 2.83203125 C7 4 7 4 9 7 C4.94519369 7 3.15167025 5.45129908 0 3 C0 2.01 0 1.02 0 0 Z " fill="#D8D9D8" transform="translate(135,40)"/>
<path d="M0 0 C2 1 2 1 3 3 C4.88764903 3.68472665 4.88764903 3.68472665 7.0625 4.125 C7.79597656 4.29257813 8.52945313 4.46015625 9.28515625 4.6328125 C9.85105469 4.75398437 10.41695312 4.87515625 11 5 C11 5.33 11 5.66 11 6 C5.72684667 5.5547115 0.98229776 4.91626837 -4 3 C-2.68 2.67 -1.36 2.34 0 2 C0 1.34 0 0.68 0 0 Z " fill="#818181" transform="translate(49,184)"/>
<path d="M0 0 C0.66 0.33 1.32 0.66 2 1 C0.1875 4 0.1875 4 -2 7 C-2.99 7 -3.98 7 -5 7 C-5.99 7.33 -6.98 7.66 -8 8 C-8 7.34 -8 6.68 -8 6 C-6.25 4.4921875 -6.25 4.4921875 -4 2.875 C-3.2575 2.33617187 -2.515 1.79734375 -1.75 1.2421875 C-1.1725 0.83226562 -0.595 0.42234375 0 0 Z " fill="#DDDEDD" transform="translate(153,178)"/>
<path d="M0 0 C1.32 0.33 2.64 0.66 4 1 C3.67 2.32 3.34 3.64 3 5 C2.34 5 1.68 5 1 5 C0.01 5.66 -0.98 6.32 -2 7 C-1.42415568 4.61435923 -0.77772405 2.33317216 0 0 Z " fill="#3A3A3A" transform="translate(155,176)"/>
<path d="M0 0 C0.66 0.33 1.32 0.66 2 1 C1.34 1.66 0.68 2.32 0 3 C0.33 3.66 0.66 4.32 1 5 C-0.98 5.66 -2.96 6.32 -5 7 C-4.60196439 4.11424181 -4.20990931 3.17810487 -1.9375 1.25 C-1.298125 0.8375 -0.65875 0.425 0 0 Z " fill="#D6D8D6" transform="translate(155,83)"/>
<path d="M0 0 C0.66 0.33 1.32 0.66 2 1 C1.34 2.32 0.68 3.64 0 5 C-3.96 5 -7.92 5 -12 5 C-12 4.67 -12 4.34 -12 4 C-11.38511719 3.96261719 -10.77023438 3.92523438 -10.13671875 3.88671875 C-9.32847656 3.82097656 -8.52023438 3.75523437 -7.6875 3.6875 C-6.88699219 3.62949219 -6.08648437 3.57148438 -5.26171875 3.51171875 C-2.63727666 2.91793306 -1.69179328 2.04219706 0 0 Z " fill="#3F3F3F" transform="translate(44,183)"/>
<path d="M0 0 C0.66 0.33 1.32 0.66 2 1 C-0.64 3.64 -3.28 6.28 -6 9 C-6.66 8.67 -7.32 8.34 -8 8 C-5.58443874 4.80800833 -3.31996462 2.25283313 0 0 Z " fill="#D7D8D7" transform="translate(52,146)"/>
<path d="M0 0 C0 0.66 0 1.32 0 2 C-3.465 3.485 -3.465 3.485 -7 5 C-7 4.01 -7 3.02 -7 2 C-4 0 -4 0 0 0 Z " fill="#C6C6C6" transform="translate(124,104)"/>
<path d="M0 0 C0.99 0 1.98 0 3 0 C5 3 5 3 5 6 C3.68 5.67 2.36 5.34 1 5 C0.67 3.35 0.34 1.7 0 0 Z " fill="#D7D8D7" transform="translate(52,91)"/>
<path d="M0 0 C0.66 0 1.32 0 2 0 C2 3.63 2 7.26 2 11 C1.67 11 1.34 11 1 11 C0.67 9.35 0.34 7.7 0 6 C-0.99 6.495 -0.99 6.495 -2 7 C-1.34 4.69 -0.68 2.38 0 0 Z " fill="#5D5D5D" transform="translate(142,79)"/>
<path d="M0 0 C1.51400391 0.01740234 1.51400391 0.01740234 3.05859375 0.03515625 C4.07050781 0.04417969 5.08242187 0.05320312 6.125 0.0625 C7.29869141 0.07990234 7.29869141 0.07990234 8.49609375 0.09765625 C8.49609375 0.42765625 8.49609375 0.75765625 8.49609375 1.09765625 C5.19609375 1.09765625 1.89609375 1.09765625 -1.50390625 1.09765625 C-1.83390625 2.74765625 -2.16390625 4.39765625 -2.50390625 6.09765625 C-3.16390625 5.76765625 -3.82390625 5.43765625 -4.50390625 5.09765625 C-3.38261259 0.13192717 -3.38261259 0.13192717 0 0 Z " fill="#3D3C3D" transform="translate(68.50390625,75.90234375)"/>
<path d="M0 0 C0.66 0.33 1.32 0.66 2 1 C2.625 4.0625 2.625 4.0625 3 7 C1.68 7.99 0.36 8.98 -1 10 C-0.67 6.7 -0.34 3.4 0 0 Z " fill="#353435" transform="translate(144,26)"/>
<path d="M0 0 C0 0.99 0 1.98 0 3 C-2.3125 5.25 -2.3125 5.25 -5 7 C-5.99 6.67 -6.98 6.34 -8 6 C-7.67 5.01 -7.34 4.02 -7 3 C-6.34 3.33 -5.68 3.66 -5 4 C-3.35 2.68 -1.7 1.36 0 0 Z " fill="#818281" transform="translate(135,183)"/>
<path d="M0 0 C-2.91403262 1.94268841 -5.85808576 3.46395304 -9 5 C-9.66 4.34 -10.32 3.68 -11 3 C-7.16674383 0.29417212 -4.67461851 -0.32613618 0 0 Z " fill="#595859" transform="translate(58,144)"/>
<path d="M0 0 C0.99 0.33 1.98 0.66 3 1 C-0.465 3.97 -0.465 3.97 -4 7 C-4.66 6.34 -5.32 5.68 -6 5 C-1.60546875 0.99609375 -1.60546875 0.99609375 0 0 Z " fill="#3C3C3C" transform="translate(120,78)"/>
<path d="M0 0 C3 1 3 1 6 3 C2.04 3 -1.92 3 -6 3 C-4 2 -2 1 0 0 Z " fill="#EBECEB" transform="translate(147,99)"/>
<path d="M0 0 C0 3 0 3 -1 5 C-3.97 5 -6.94 5 -10 5 C-10 4.67 -10 4.34 -10 4 C-9.36191406 3.79503906 -8.72382812 3.59007813 -8.06640625 3.37890625 C-7.24011719 3.10949219 -6.41382812 2.84007813 -5.5625 2.5625 C-4.73878906 2.29566406 -3.91507812 2.02882813 -3.06640625 1.75390625 C-1.03780412 1.17844506 -1.03780412 1.17844506 0 0 Z " fill="#141314" transform="translate(83,81)"/>
<path d="M0 0 C0.33 0.99 0.66 1.98 1 3 C-0.65 4.32 -2.3 5.64 -4 7 C-4 5.68 -4 4.36 -4 3 C-2 1.25 -2 1.25 0 0 Z " fill="#131113" transform="translate(121,54)"/>
<path d="M0 0 C0.99 0 1.98 0 3 0 C2.67 1.65 2.34 3.3 2 5 C0.68 4.67 -0.64 4.34 -2 4 C-1.34 2.68 -0.68 1.36 0 0 Z " fill="#383738" transform="translate(109,175)"/>
<path d="M0 0 C2.09749995 2.35968744 2.96905704 3.54616994 3.1875 6.75 C3.0946875 7.86375 3.0946875 7.86375 3 9 C2.01 8.34 1.02 7.68 0 7 C-0.1875 3.375 -0.1875 3.375 0 0 Z " fill="#222122" transform="translate(157,45)"/>
<path d="M0 0 C0.99 0 1.98 0 3 0 C3 1.98 3 3.96 3 6 C2.01 6 1.02 6 0 6 C0 4.02 0 2.04 0 0 Z " fill="#100E10" transform="translate(123,43)"/>
<path d="M0 0 C0.33 0 0.66 0 1 0 C1.19466332 1.79090253 1.38051213 3.58276505 1.5625 5.375 C1.66691406 6.37273438 1.77132812 7.37046875 1.87890625 8.3984375 C2 11 2 11 1 13 C0.34 13 -0.32 13 -1 13 C-0.67 8.71 -0.34 4.42 0 0 Z " fill="#9E9E9E" transform="translate(147,32)"/>
<path d="M0 0 C0.66666667 2.66666667 1.33333333 5.33333333 2 8 C0.68 8.33 -0.64 8.66 -2 9 C-1.34 6.03 -0.68 3.06 0 0 Z " fill="#B6B7B6" transform="translate(64,160)"/>
<path d="M0 0 C0 0.66 0 1.32 0 2 C-2.5 3.625 -2.5 3.625 -5 5 C-5 4.34 -5 3.68 -5 3 C-5.99 2.67 -6.98 2.34 -8 2 C-5.09399739 0.74335022 -3.20395416 0 0 0 Z " fill="#2B292B" transform="translate(116,84)"/>
<path d="M0 0 C0.66 1.32 1.32 2.64 2 4 C1.01 4.495 1.01 4.495 0 5 C-0.40729228 7.32156597 -0.74438677 9.6568787 -1 12 C-1.33 12 -1.66 12 -2 12 C-2.28571429 3.42857143 -2.28571429 3.42857143 0 0 Z " fill="#3F3F3F" transform="translate(51,28)"/>
</svg>
